<svg width="599" height="430" viewBox="0 0 599 430" fill="none" xmlns="http://www.w3.org/2000/svg">
<path d="M599 425.14H0V430H599V425.14Z" fill="#85848B"/>
<path d="M474.564 339.322C474.564 343.061 454.937 353.96 431.624 353.96C408.311 353.96 390.145 343.061 390.145 339.322C390.145 335.584 409.041 336.788 432.377 336.788C455.713 336.788 474.564 335.577 474.564 339.322Z" fill="#504F60"/>
<path opacity="0.2" d="M474.564 339.322C474.564 343.061 454.937 353.96 431.624 353.96C408.311 353.96 390.145 343.061 390.145 339.322" fill="black"/>
<path d="M239.781 270.722C243.565 271.26 247.492 271.602 251.116 270.297C251.686 270.101 252.314 269.663 252.257 269.03C252.216 268.799 252.128 268.583 252 268.396C250.634 266.121 249.487 263.694 248.576 261.153C248.54 261.021 248.466 260.905 248.365 260.824C248.247 260.776 248.118 260.776 248 260.824C246.327 261.312 244.884 262.509 243.223 263.022C242.376 263.28 241.492 263.354 240.62 263.238C239.867 263.143 238.84 262.452 238.155 262.541C238.543 265.31 239.49 267.895 239.781 270.722Z" fill="#0046BB"/>
<path d="M311.342 263.707C313.836 261.806 316.421 259.81 317.894 256.876C317.999 256.7 318.06 256.497 318.071 256.287C318.046 256.079 317.973 255.883 317.86 255.716C316.457 253.241 314.651 251.077 312.535 249.335C311.431 250.201 310.433 251.224 309.567 252.377C308.939 253.112 307.204 254.278 307.187 255.399C307.187 256.033 307.849 256.768 308.158 257.3C308.574 257.985 308.968 258.682 309.345 259.392C309.562 259.74 311.542 263.567 311.342 263.707Z" fill="#0046BB"/>
<path d="M254.614 279.206C254.659 279.859 254.497 280.509 254.158 281.044C253.891 281.341 253.561 281.559 253.199 281.678C247.908 283.781 241.785 281.158 236.506 283.23C235.421 283.655 234.394 284.269 233.304 284.675C232.004 285.109 230.664 285.372 229.309 285.461C227.443 285.657 225.565 285.784 223.693 285.841C222.271 285.953 220.842 285.814 219.459 285.429C218.767 285.232 218.12 284.876 217.561 284.384C217.001 283.891 216.542 283.274 216.211 282.571C215.924 281.941 215.867 281.213 216.052 280.537C216.134 280.305 216.252 280.091 216.4 279.903C216.757 279.458 217.178 279.079 217.644 278.782L219.59 277.388C220.503 276.671 221.494 276.088 222.541 275.651C223.311 275.373 224.127 275.252 224.909 275.018C227.643 274.131 229.731 271.723 231.672 269.41L234.32 266.273C234.567 265.928 234.881 265.649 235.239 265.456C235.606 265.32 235.996 265.279 236.38 265.335C238.952 265.539 241.436 266.464 243.599 268.022C244.152 268.483 244.75 268.874 245.38 269.188C246.932 269.86 248.924 269.353 250.357 268.504C251.036 268.098 250.887 267.87 251.173 267.148C251.458 266.425 252.154 265.963 252.759 266.622C252.942 266.85 253.071 267.124 253.136 267.42C253.707 269.511 253.49 271.761 253.49 273.953C253.473 274.296 253.512 274.639 253.604 274.967C253.75 275.297 253.923 275.611 254.123 275.905C254.164 275.983 254.2 276.063 254.232 276.146C254.581 277.116 254.712 278.167 254.614 279.206Z" fill="#514E7F"/>
<path d="M254.614 279.206C254.659 279.859 254.497 280.509 254.158 281.044C253.891 281.341 253.561 281.559 253.199 281.678C247.908 283.781 241.785 281.158 236.506 283.23C235.421 283.655 234.394 284.269 233.304 284.675C232.004 285.109 230.664 285.372 229.309 285.461C227.443 285.657 225.565 285.784 223.693 285.841C222.271 285.953 220.842 285.814 219.459 285.429C218.767 285.232 218.12 284.876 217.561 284.384C217.001 283.892 216.542 283.274 216.211 282.571C215.924 281.941 215.867 281.213 216.052 280.537C216.134 280.305 216.252 280.091 216.4 279.903C216.708 280.619 216.93 281.57 217.125 281.912C217.387 282.419 217.743 282.858 218.17 283.2C218.597 283.542 219.085 283.779 219.601 283.895C220.374 283.948 221.148 283.838 221.884 283.572C226.678 282.254 231.774 282.235 236.38 280.239C237.961 279.549 239.468 278.63 241.128 278.211C242.789 277.793 244.553 277.907 246.265 277.749C248.97 277.508 251.589 276.602 254.255 276.127C254.599 277.105 254.722 278.163 254.614 279.206Z" fill="#464353"/>
<path d="M323.458 263.32C323.207 265.551 321.934 267.471 320.536 269.099C319.138 270.728 317.557 272.192 316.444 274.067C315.075 276.393 314.458 279.276 312.678 281.24C311.994 281.955 311.226 282.562 310.395 283.046C309.463 283.656 308.479 284.16 307.456 284.548C304.796 285.492 301.931 285.277 299.152 285.049C298.25 285.039 297.356 284.848 296.515 284.485C296.132 284.269 295.766 284.019 295.419 283.737C294.723 283.261 294.136 282.609 293.707 281.836C293.497 281.415 293.438 280.922 293.542 280.455C293.701 279.94 293.973 279.478 294.335 279.111C294.961 278.389 295.632 277.718 296.344 277.102C297.321 276.402 298.202 275.549 298.958 274.568C299.422 273.793 299.763 272.936 299.968 272.033C300.372 270.452 300.619 268.826 300.704 267.186C300.701 266.095 300.802 265.008 301.007 263.941C301.429 262.268 302.548 260.773 302.422 259.043C302.371 258.795 302.391 258.536 302.479 258.302C302.612 258.118 302.797 257.991 303.004 257.94C303.876 257.554 304.796 257.317 305.732 257.237C306.202 257.201 306.672 257.281 307.111 257.472C307.549 257.663 307.943 257.959 308.266 258.34C308.654 258.859 308.911 259.607 309.482 259.81C309.764 259.895 310.061 259.908 310.349 259.848C311.753 259.689 313.237 259.493 314.344 258.485C314.856 257.976 315.267 257.354 315.552 256.659C315.837 255.965 315.989 255.212 315.999 254.449C315.999 253.872 315.765 253.27 316.57 253.182C317.175 253.093 317.654 253.815 317.962 254.259C319.075 255.913 320.217 257.643 320.633 259.658C320.795 259.588 320.967 259.551 321.141 259.55C321.497 259.546 321.849 259.638 322.165 259.818C322.482 259.998 322.756 260.26 322.962 260.583C323.416 261.4 323.592 262.371 323.458 263.32Z" fill="#514E7F"/>
<path d="M323.458 263.32C323.207 265.551 321.934 267.471 320.536 269.099C319.138 270.728 317.557 272.192 316.444 274.067C315.075 276.393 314.458 279.276 312.678 281.24C311.994 281.955 311.226 282.562 310.395 283.046C309.464 283.656 308.479 284.16 307.456 284.548C304.796 285.492 301.931 285.277 299.152 285.049C298.25 285.039 297.356 284.848 296.515 284.485C296.132 284.269 295.766 284.019 295.419 283.737C294.723 283.261 294.136 282.61 293.707 281.836C294.242 281.55 294.826 281.395 295.419 281.38C296.652 281.456 297.554 282.749 298.735 283.148C300.419 283.712 302.097 282.394 303.803 281.944C304.916 281.652 306.086 281.728 307.187 281.31C308.105 280.916 308.953 280.346 309.693 279.625C310.706 278.82 311.608 277.855 312.369 276.76C313.002 275.666 313.528 274.499 313.939 273.282C314.84 270.948 315.901 268.694 317.112 266.539C317.291 266.198 317.508 265.883 317.757 265.602C318.025 265.329 318.328 265.139 318.63 264.898C319.771 263.941 320.245 262.363 320.645 260.817C320.753 260.347 320.904 259.891 321.095 259.455C321.451 259.451 321.803 259.544 322.12 259.723C322.437 259.903 322.71 260.165 322.916 260.488C323.407 261.325 323.6 262.334 323.458 263.32Z" fill="#464353"/>
<path d="M203.787 65.7556C205.208 66.9375 206.377 68.4518 207.211 70.1912C208.01 71.9275 212.616 85.3992 212.348 87.3573C213.849 85.678 219.767 85.4056 221.285 83.7263C221.918 83.023 225.337 79.5125 225.851 78.695C226.364 77.8776 230.177 76.1604 230.593 75.2986C232.151 72.1999 219.544 60.4581 221.159 57.3975C221.249 57.2569 221.295 57.088 221.291 56.9159C221.254 56.7715 221.181 56.6417 221.08 56.5421C220.047 55.3698 218.677 54.641 217.433 53.7729C216.189 52.9048 214.99 51.6945 214.653 50.0977C213.467 50.704 212.378 51.5217 211.429 52.5183C209.116 54.7192 206.842 56.9645 204.609 59.2541C203.736 60.154 202.047 61.3516 201.641 62.6379C201.162 64.0193 202.954 65.0015 203.787 65.7556Z" fill="#A1616A"/>
<path d="M224.196 60.7687C222.261 62.2119 220.454 63.854 218.797 65.6733C217.233 67.3905 215.749 69.3802 215.372 71.7818C215.213 72.726 215.235 73.6828 215.104 74.6396C214.534 78.7902 211.303 81.8318 209.877 85.7161C209.463 86.915 209.159 88.1569 208.969 89.4231C208.568 91.8234 208.349 94.2567 208.313 96.6976C208.279 99.0611 210.367 100.69 211.132 102.895C211.897 105.1 212.102 107.369 212.49 109.631C213.221 113.902 214.562 118.02 215.915 122.114C218.728 130.744 227.848 154.602 230.662 163.239C239.285 160.837 262.239 155.318 269.875 150.255C272.42 148.57 252.211 129.553 254.934 128.242C255.089 128.215 255.237 128.148 255.366 128.047C255.494 127.945 255.599 127.812 255.674 127.658C255.748 127.504 255.789 127.333 255.793 127.158C255.797 126.983 255.765 126.81 255.698 126.651C252.976 113.433 244.461 102.572 240.598 89.7019C239.256 85.2346 236.848 81.4199 235.022 77.1743C233.367 73.328 232.482 69.076 230.502 65.4198C230.128 64.6665 229.64 63.9911 229.058 63.4237C228.564 63.0032 228.03 62.6441 227.466 62.3528C226.336 61.7445 225.286 61.3833 224.196 60.7687Z" fill="#514E7F"/>
<path d="M204.244 64.2538C211.698 64.2538 217.741 57.5442 217.741 49.2676C217.741 40.9909 211.698 34.2814 204.244 34.2814C196.789 34.2814 190.747 40.9909 190.747 49.2676C190.747 57.5442 196.789 64.2538 204.244 64.2538Z" fill="#A1616A"/>
<path d="M217.975 56.3076C218.648 55.6187 219.493 55.1724 220.398 55.0276C221.304 54.8828 222.228 55.0463 223.048 55.4965C223.962 56.0224 224.761 57.087 224.555 58.2022L231.249 58.3163C232.315 58.2839 233.38 58.3924 234.423 58.6395C235.472 58.8931 236.408 59.5452 237.071 60.4834C237.151 60.6038 237.242 60.7496 237.379 60.7686C237.49 60.7705 237.599 60.7303 237.687 60.6545C238.717 60.0811 239.877 59.8605 241.02 60.0209C244.638 60.2807 247.983 62.2894 250.819 64.7987C251.33 65.1891 251.727 65.7378 251.96 66.3765C252.194 67.2193 251.915 68.2775 252.531 68.8795C252.531 75.8499 254.688 82.364 256.126 89.1569C256.383 90.3672 257.428 91.4381 258.152 92.3886C259.048 93.4423 259.779 94.6544 260.315 95.9751C261.537 99.4983 259.853 103.642 261.04 107.178C261.542 108.674 262.513 109.903 263.323 111.202C264.391 112.702 265.067 114.5 265.275 116.398C265.326 117.247 265.229 118.103 265.275 118.933C265.351 120.075 265.543 121.203 265.846 122.298C266.333 124.342 266.842 126.385 267.375 128.425C268.243 131.72 269.373 135.275 272.032 137.03C265.612 138.241 258.843 139.426 252.725 136.948C251.872 136.625 251.062 136.175 250.317 135.611C248.108 133.862 247.041 130.871 246.088 128.045C245.026 124.877 243.948 121.651 243.731 118.28C243.733 117.208 243.596 116.141 243.326 115.112C242.704 113.274 241.043 112.165 239.536 111.145C237.835 110.11 236.293 108.779 234.97 107.204C234.314 106.41 233.811 105.475 233.493 104.457C233.175 103.439 233.049 102.36 233.121 101.285C233.236 100.24 233.607 99.2322 233.641 98.1803C233.675 97.1284 233.253 95.9244 232.345 95.6456C227.671 94.0741 225.44 87.9276 224.401 82.6301C223.953 79.8922 223.752 77.1113 223.802 74.3291L223.739 68.9239C223.094 68.2723 222.575 67.4818 222.214 66.6005C221.853 65.7192 221.657 64.7655 221.639 63.7975C221.701 63.2327 221.691 62.6611 221.61 62.0993C221.385 61.4126 221.017 60.7941 220.537 60.2933C219.505 59.1174 218.641 57.7733 217.975 56.3076Z" fill="#464353"/>
<path d="M203.599 73.442C203.445 75.1148 203.787 76.8321 203.45 78.4733C203.319 79.1069 203.091 79.7406 202.925 80.3299C202.419 82.6921 202.638 85.1743 203.547 87.3826C204.455 89.5693 205.542 91.6586 206.795 93.6243C207.218 94.2953 207.567 95.0208 207.833 95.7851C208.049 96.5875 208.183 97.4144 208.233 98.25C208.563 101.606 209.093 104.933 209.819 108.211C210.459 111.05 217.718 135.32 219.407 137.569C219.714 138.067 220.179 138.418 220.709 138.551C221.091 138.567 221.47 138.48 221.816 138.298L225.24 136.84C225.531 136.741 225.801 136.578 226.033 136.359C226.354 135.942 226.528 135.411 226.524 134.863C226.769 131.771 219.493 107.33 218.568 104.409C215.772 95.5886 212.051 87.0848 210.23 77.9537C209.722 75.419 209.454 71.5156 207.782 69.4942C207.092 68.6578 207.326 69.0126 206.498 69.4499C206.08 69.6513 205.675 69.8864 205.288 70.1532C204.804 70.5271 204.401 71.0164 204.108 71.5854C203.816 72.1544 203.642 72.7887 203.599 73.442Z" fill="#464353"/>
<path d="M213.991 90.1771C214.91 95.5696 215.858 100.949 216.799 106.342L230.199 102.445C230.308 100.886 229.56 99.4413 229.058 98.0092C227.837 94.6064 227.808 90.8171 226.821 87.3193C226.073 84.6579 224.772 82.2119 224.07 79.5315C223.665 77.9727 223.459 76.3631 223.06 74.7853C222.631 73.2358 222.105 71.7218 221.485 70.2546C220.733 68.1267 219.751 66.1075 218.563 64.2411C216.851 64.9508 215.024 65.7746 214.048 67.4918C213.548 68.4594 213.262 69.5455 213.215 70.6601C212.981 73.9996 214.071 77.358 213.712 80.6784C213.341 83.8406 213.436 87.0485 213.991 90.1771Z" fill="#0046BB"/>
<path d="M230.422 161.908C231.175 165.077 230.085 168.41 229.195 171.546C227.855 176.271 226.941 181.132 226.467 186.057C226.409 187.311 226.182 188.547 225.794 189.726C225.371 190.784 224.652 191.678 224.161 192.685C222.814 195.334 222.849 198.566 223.14 201.595C223.334 203.591 223.625 205.581 223.984 207.545C224.424 209.947 224.966 212.456 224.333 214.8C225.394 214.541 226.113 216.068 226.045 217.265C225.976 218.463 225.628 219.8 226.147 220.833C227.46 221.365 227.471 223.368 227.431 224.92C227.453 227.612 227.76 230.292 228.345 232.904C230.331 243.508 232.438 254.081 234.668 264.626C239.49 266.286 245.123 268.016 249.723 265.716C250.579 265.291 251.435 264.613 251.629 263.586C251.679 263.033 251.617 262.474 251.447 261.952L249.267 253.144C248.736 251.014 248.205 248.816 248.485 246.629C248.696 245.001 249.335 243.246 248.616 241.807C248.371 241.313 247.983 240.926 247.697 240.458C246.556 238.601 247.155 236.117 247.246 233.867C247.282 233.362 247.251 232.854 247.155 232.359C246.999 231.781 246.78 231.226 246.504 230.705C244.703 226.822 243.838 222.486 243.993 218.121C244.061 217.564 243.992 216.997 243.794 216.48C243.655 216.266 243.531 216.042 243.423 215.808C243.338 215.401 243.38 214.974 243.542 214.598C242.888 214.047 242.298 213.408 241.785 212.697C242.101 212.478 242.369 212.183 242.568 211.832C242.766 211.482 242.891 211.087 242.931 210.675C242.972 210.264 242.928 209.848 242.802 209.458C242.677 209.068 242.473 208.715 242.207 208.426C242.44 208.374 242.655 208.251 242.829 208.071C243.002 207.892 243.128 207.662 243.191 207.408C243.254 207.154 243.253 206.885 243.187 206.632C243.121 206.379 242.993 206.151 242.818 205.973C242.538 205.758 242.167 205.663 241.967 205.34C241.659 204.871 241.91 204.218 242.161 203.718L243.491 201.05C244.484 199.066 244.707 196.614 245.774 194.713C247.303 191.944 248.302 188.858 249.289 185.804L253.13 174.037L255.716 176.527C256.577 177.257 257.298 178.171 257.839 179.214C258.206 180.244 258.439 181.329 258.529 182.433C259.477 188.82 263.095 194.358 264.436 200.651C264.733 202.051 264.932 203.521 265.657 204.719C265.917 205.086 266.149 205.476 266.354 205.885C266.542 206.508 266.641 207.16 266.645 207.817C266.764 209.104 267.132 210.348 267.723 211.463C268.314 212.578 269.114 213.539 270.069 214.281C271.341 215.25 272.922 215.916 273.613 217.449C273.751 217.924 273.943 218.377 274.184 218.799C274.8 219.623 276.13 219.718 276.392 220.751C276.541 221.327 276.267 222.018 276.558 222.525C276.723 222.759 276.942 222.941 277.191 223.051L280.906 225.11C285.061 227.417 287.184 232.714 290.249 236.573C291.307 237.83 292.244 239.206 293.045 240.679C294.369 243.309 294.98 246.61 297.217 248.283C297.819 248.63 298.366 249.081 298.838 249.62C299.54 250.647 299.283 252.085 299.346 253.378C299.409 254.671 300.299 256.211 301.406 255.818C301.018 257.383 301.018 259.036 301.406 260.602C306.267 260.325 310.902 258.24 314.567 254.683C315.651 253.632 316.695 252.288 316.707 250.691C316.723 250.416 316.668 250.141 316.547 249.899C316.328 249.587 316.038 249.345 315.708 249.196C312.232 247.105 311.188 242.257 309.43 238.322C307.895 234.85 305.624 231.859 303.723 228.633C299.591 221.695 296.772 213.299 290.523 208.717C289.147 207.71 287.549 206.816 286.859 205.15C286.477 204.218 286.431 203.154 286.128 202.19C285.826 201.227 285.101 200.289 284.177 200.289C284.69 198.895 284.588 197.197 284.622 195.689C284.657 195.02 284.587 194.349 284.416 193.706C284.179 193.014 283.871 192.355 283.497 191.741C281.867 188.676 281.052 185.161 281.146 181.603C281.192 179.771 281.483 177.883 280.986 176.134C280.735 175.253 280.296 174.448 279.993 173.599C279.538 172.061 279.297 170.454 279.28 168.834L278.938 162.745C278.886 160.717 278.649 158.7 278.23 156.725C277.088 151.998 275.947 132.196 272.038 129.965C268.128 127.735 261.411 142.974 257.011 143.272C255.065 143.362 253.141 143.774 251.304 144.495C248.376 145.712 245.922 147.98 243.531 150.198L235.438 157.745C233.726 159.31 232.311 160.806 230.422 161.908Z" fill="#464353"/>
<path d="M191.58 32.6275C193.36 29.9281 196.419 28.496 199.433 28.3756C202.446 28.2552 205.414 29.3071 208.113 30.7962C208.91 31.2993 209.761 31.6869 210.647 31.9495C212.074 32.2726 213.66 31.8417 214.95 32.5831C216.662 33.5907 216.993 36.157 216.845 38.2861C216.697 40.4153 216.337 42.7788 217.359 44.6228C217.721 45.1487 218.051 45.7012 218.346 46.2767C218.785 47.3729 218.528 48.6403 218.266 49.7999C217.598 49.1662 217.222 48.2094 216.628 47.4743C216.034 46.7393 215.001 46.245 214.265 46.7963C213.529 47.3476 213.54 48.3488 213.501 49.2486C213.461 50.1484 213.255 51.2256 212.49 51.5171C212.171 51.5978 211.837 51.5703 211.532 51.4381C211.227 51.306 210.964 51.0752 210.778 50.7757C209.471 49.0014 209.996 46.169 208.701 44.382C207.965 43.3682 206.738 42.8739 206.059 41.8093C205.522 40.9729 205.385 39.9083 204.917 39.0085C204.449 38.1087 203.359 37.4497 202.634 38.0707C202.387 38.3331 202.181 38.6393 202.024 38.9768C201.572 39.6956 200.915 40.2242 200.159 40.4772C199.403 40.7301 198.592 40.6927 197.858 40.3709C197.296 39.9884 196.689 39.6961 196.054 39.5028C195.638 39.4797 195.225 39.5861 194.861 39.8101C194.497 40.034 194.197 40.3666 193.994 40.7701C193.584 41.5764 193.387 42.494 193.423 43.4188C193.423 44.6862 193.629 46.0359 192.978 47.0497C192.731 47.4314 192.421 47.7581 192.065 48.0129C191.112 48.691 189.782 49.1472 188.903 48.3741C188.605 48.0661 188.384 47.6781 188.26 47.2475C188.136 46.817 188.114 46.3583 188.196 45.9155C188.367 45.0335 188.592 44.1655 188.869 43.3175C189.371 41.3531 188.715 39.1416 189.263 37.2913C189.837 35.6249 190.616 34.0553 191.58 32.6275Z" fill="#464353"/>
<path d="M198.811 77.3328C198.725 77.7946 198.769 78.2745 198.936 78.7078C199.106 79.0029 199.337 79.2485 199.61 79.4239C201.529 80.7513 203.712 81.5367 205.967 81.7114C206.274 81.7173 206.575 81.8041 206.846 81.9649C207.383 82.3577 207.417 83.2322 207.217 83.9292C206.951 84.5867 206.813 85.2994 206.812 86.0203C206.977 87.3447 208.393 87.9213 209.586 88.1178C211.258 88.3522 213.09 88.2318 214.414 87.0722C215.311 86.1639 215.994 85.0263 216.405 83.7581C219.681 75.4001 220.828 66.1612 224.144 57.8285C224.395 57.2844 224.563 56.6976 224.641 56.0922C224.676 55.7892 224.637 55.4813 224.529 55.2005C224.42 54.9197 224.246 54.6762 224.024 54.4954C223.408 54.0708 222.449 54.3116 222.033 53.6463C221.827 53.3104 221.85 52.8542 221.667 52.4993C221.285 51.7453 220.281 51.8657 219.596 51.4284C219.059 51.1116 218.688 50.4589 218.089 50.3322C217.795 50.3138 217.501 50.3717 217.23 50.5015C216.96 50.6313 216.72 50.8294 216.531 51.0799C214.585 53.095 213.563 55.9528 212.479 58.6522C210.823 62.79 208.885 66.7811 206.681 70.5905C206.937 70.147 205.448 66.7885 204.866 66.6428C203.844 66.4147 202.537 68.4044 201.984 69.1458C200.247 71.4843 199.146 74.3243 198.811 77.3328Z" fill="#0046BB"/>
<path opacity="0.1" d="M219.544 52.0177C219.134 52.0253 218.731 52.1352 218.365 52.3392C217.998 52.5432 217.678 52.8361 217.427 53.1963C216.816 54.0771 216.697 55.2431 216.542 56.3646C216.023 59.918 214.881 63.3239 213.181 66.3893" fill="black"/>
<path opacity="0.1" d="M222.455 54.546C221.889 54.56 221.336 54.7374 220.851 55.0607C220.366 55.3841 219.964 55.8422 219.687 56.39C219.309 57.3867 219.074 58.4429 218.991 59.5203C218.501 61.9089 217.558 64.1537 216.223 66.1041" fill="black"/>
<path d="M358.088 178.428V170.558C358.087 164.764 356.013 159.209 352.323 155.112C348.633 151.016 343.629 148.715 338.411 148.715H58.4858C53.2679 148.715 48.2636 151.016 44.5734 155.112C40.8833 159.209 38.8094 164.764 38.8079 170.558V185.069L358.088 178.428Z" fill="#33323D"/>
<path d="M136.358 139.489C136.358 139.489 135.559 194.529 144.348 212.64C153.137 230.75 156.904 309.534 156.904 309.534C156.904 309.534 249.038 320.116 313.243 296.86C377.447 273.605 514.062 264.093 514.062 264.093L491.04 91.8056C491.04 91.8056 377.304 83.7073 312.603 117.97C247.903 152.232 136.358 139.489 136.358 139.489Z" fill="#8DD070"/>
<path opacity="0.1" d="M136.358 139.489C136.358 139.489 135.559 194.529 144.348 212.64C153.137 230.75 156.904 309.534 156.904 309.534C156.904 309.534 249.038 320.116 313.243 296.86C377.447 273.605 514.062 264.093 514.062 264.093L491.04 91.8056C491.04 91.8056 377.304 83.7073 312.603 117.97C247.903 152.232 136.358 139.489 136.358 139.489Z" fill="black"/>
<path d="M156.75 159.595C156.75 159.595 153.868 205.01 161.098 219.521C168.329 234.032 168.666 298.812 168.666 298.812C168.666 298.812 251.584 303.083 310.566 280.791C369.548 258.498 493.494 244.038 493.494 244.038L479.409 103.142C479.409 103.142 376.853 101.97 316.998 133.349C257.142 164.728 156.75 159.595 156.75 159.595Z" fill="#8DD070"/>
<path opacity="0.1" d="M316.087 254.994C327.885 253.362 334.894 229.264 331.742 201.169C328.591 173.074 316.472 151.621 304.674 153.252C292.876 154.884 285.867 178.982 289.018 207.077C292.17 235.172 304.289 256.625 316.087 254.994Z" fill="black"/>
<path opacity="0.2" d="M428.685 7.87646C428.685 7.87646 318.191 38.9261 266.085 93.5799C213.98 148.234 104.291 174.113 104.291 174.113C104.291 174.113 118.741 226.764 132.107 241.009C145.473 255.254 170.823 328.962 170.823 328.962C170.823 328.962 261.434 307.633 316.107 263.605C370.781 219.578 498.202 163.974 498.202 163.974L428.685 7.87646Z" fill="black"/>
<path d="M102.63 166.23C102.63 166.23 117.074 218.888 130.429 233.132C143.783 247.377 169.145 321.079 169.145 321.079C169.145 321.079 259.768 299.756 314.447 255.729C369.126 211.702 496.536 156.117 496.536 156.117L427.018 0C427.018 0 316.53 31.0497 264.425 85.7034C212.319 140.357 102.63 166.23 102.63 166.23Z" fill="#8DD070"/>
<path opacity="0.1" d="M102.63 166.23C102.63 166.23 117.074 218.888 130.429 233.132C143.783 247.377 169.145 321.079 169.145 321.079C169.145 321.079 259.768 299.756 314.447 255.729C369.126 211.702 496.536 156.117 496.536 156.117L427.018 0C427.018 0 316.53 31.0497 264.425 85.7034C212.319 140.357 102.63 166.23 102.63 166.23Z" fill="black"/>
<path d="M127.575 178.422C127.575 178.422 137.386 222.633 148.28 233.975C159.175 245.318 177.386 306.847 177.386 306.847C177.386 306.847 257.479 282.653 307.456 241.338C357.432 200.023 471.413 144.09 471.413 144.09L419.074 14.7455C419.074 14.7455 321.147 48.5643 272.848 98.8267C224.549 149.089 127.575 178.422 127.575 178.422Z" fill="#8DD070"/>
<path opacity="0.1" d="M305.608 214.926C316.386 209.354 316.397 184.03 305.632 158.364C294.868 132.698 277.405 116.41 266.627 121.982C255.849 127.555 255.839 152.878 266.603 178.544C277.367 204.21 294.83 220.499 305.608 214.926Z" fill="black"/>
<path opacity="0.1" d="M365.645 186.152V404.767C365.645 407.25 365.204 409.709 364.348 412.003C363.492 414.296 362.238 416.38 360.656 418.136C359.075 419.891 357.198 421.283 355.131 422.233C353.065 423.182 350.851 423.671 348.615 423.67H55.8434C51.3293 423.668 47.0007 421.676 43.8093 418.131C40.6178 414.586 38.825 409.78 38.825 404.767V164.113C47.2144 167.573 47.2144 167.573 55.8434 167.282H348.615C353.126 167.282 357.452 169.269 360.645 172.807C363.837 176.344 365.636 181.144 365.645 186.152Z" fill="black"/>
<path d="M365.645 188.934V407.549C365.643 412.563 363.848 417.371 360.655 420.915C357.461 424.46 353.13 426.451 348.615 426.451H55.8434C51.3293 426.45 47.0007 424.457 43.8093 420.913C40.6178 417.368 38.825 412.561 38.825 407.549V166.889C47.2144 170.342 47.2144 170.342 55.8434 170.057H348.615C353.127 170.057 357.454 172.045 360.647 175.584C363.84 179.123 365.637 183.925 365.645 188.934Z" fill="#504F60"/>
<path opacity="0.1" d="M364.811 269.758V339.671H303.746C295.47 339.547 287.57 335.81 281.757 329.268C275.944 322.725 272.684 313.905 272.684 304.715C272.684 295.524 275.944 286.704 281.757 280.161C287.57 273.619 295.47 269.882 303.746 269.758H364.811Z" fill="black"/>
<path d="M365.645 267.895V337.82H304.579C296.303 337.697 288.403 333.959 282.59 327.417C276.777 320.875 273.517 312.054 273.517 302.864C273.517 293.674 276.777 284.853 282.59 278.311C288.403 271.769 296.303 268.032 304.579 267.908L365.645 267.895Z" fill="#33323D"/>
<path opacity="0.1" d="M307.507 318.348C314.287 318.348 319.783 312.245 319.783 304.718C319.783 297.19 314.287 291.088 307.507 291.088C300.727 291.088 295.231 297.19 295.231 304.718C295.231 312.245 300.727 318.348 307.507 318.348Z" fill="black"/>
<path d="M308.34 316.498C315.12 316.498 320.616 310.395 320.616 302.867C320.616 295.34 315.12 289.237 308.34 289.237C301.561 289.237 296.064 295.34 296.064 302.867C296.064 310.395 301.561 316.498 308.34 316.498Z" fill="#0046BB"/>
<path d="M471.642 267.293C472.127 273.129 468.149 278.794 469.307 284.51C469.559 285.733 470.032 286.886 470.203 288.122C470.683 291.518 468.862 294.731 467.122 297.57L452.169 321.928C451.57 322.999 450.853 323.982 450.035 324.856C447.181 327.682 442.889 327.39 439.134 328.233C436.494 328.828 434.002 330.052 431.829 331.82C431.738 331.906 431.681 332.027 431.668 332.159C431.655 332.291 431.688 332.424 431.761 332.529C432.381 333.468 433.204 334.219 434.153 334.713C435.102 335.208 436.147 335.431 437.194 335.362C437.588 335.938 437.194 336.781 436.623 337.193C435.818 337.827 434.717 337.979 434.557 339.487C434.5 340.013 434.596 340.546 434.831 341.008C435.434 342.032 436.371 342.757 437.445 343.029C442.621 344.785 448.214 341.699 452.089 337.497C455.964 333.296 458.744 327.992 462.545 323.715C464.65 321.352 467.042 319.324 469.21 317.03C473.536 312.455 476.898 306.891 480.145 301.321C481.121 299.642 482.103 297.919 482.514 295.973C482.924 294.028 482.73 292.063 483.193 290.181C483.798 287.71 485.424 285.746 486.777 283.674C489.43 279.618 491.2 274.657 490.851 269.663C490.503 264.67 487.713 259.734 483.467 258.036C482.151 257.449 480.699 257.351 479.329 257.757C477.588 258.352 476.304 259.949 475.117 261.476L472.264 265.12C471.552 265.919 470.99 266.867 470.609 267.908C470.426 268.431 470.382 269.001 470.484 269.551C470.585 270.1 470.826 270.605 471.179 271.007" fill="#FBBEBE"/>
<path opacity="0.05" d="M471.642 267.293C472.127 273.129 468.149 278.794 469.307 284.51C469.559 285.733 470.032 286.886 470.203 288.122C470.683 291.518 468.862 294.731 467.122 297.57L452.169 321.928C451.57 322.999 450.853 323.982 450.035 324.856C447.181 327.682 442.889 327.39 439.134 328.233C436.494 328.828 434.002 330.052 431.829 331.82C431.738 331.906 431.681 332.027 431.668 332.159C431.655 332.291 431.688 332.424 431.761 332.529C432.381 333.468 433.204 334.219 434.153 334.713C435.102 335.208 436.147 335.431 437.194 335.362C437.588 335.938 437.194 336.781 436.623 337.193C435.818 337.827 434.717 337.979 434.557 339.487C434.5 340.013 434.596 340.546 434.831 341.008C435.434 342.032 436.371 342.757 437.445 343.029C442.621 344.785 448.214 341.699 452.089 337.497C455.964 333.296 458.744 327.992 462.545 323.715C464.65 321.352 467.042 319.324 469.21 317.03C473.536 312.455 476.898 306.891 480.145 301.321C481.121 299.642 482.103 297.919 482.514 295.973C482.924 294.028 482.73 292.063 483.193 290.181C483.798 287.71 485.424 285.746 486.777 283.674C489.43 279.618 491.2 274.657 490.851 269.663C490.503 264.67 487.713 259.734 483.467 258.036C482.151 257.449 480.699 257.351 479.329 257.757C477.588 258.352 476.304 259.949 475.117 261.476L472.264 265.12C471.552 265.919 470.99 266.867 470.609 267.908C470.426 268.431 470.382 269.001 470.484 269.551C470.585 270.1 470.826 270.605 471.179 271.007" fill="black"/>
<path d="M482.959 417.536C479.694 419.747 475.625 419.88 471.83 419.367C471.219 419.285 470.495 419.234 470.118 419.76C469.547 420.52 470.221 421.661 470.917 422.25C473.155 424.116 475.785 425.318 478.559 425.742C481.035 426.131 483.534 426.316 486.035 426.293C492.883 426.426 499.732 426.553 506.472 425.463C506.871 425.429 507.26 425.304 507.613 425.095C508.048 424.757 508.35 424.247 508.458 423.67C508.92 421.718 508.03 419.627 506.683 418.271C505.336 416.915 503.607 416.161 501.917 415.432L495.982 412.866C494.59 412.264 492.358 410.667 490.846 410.794C488.004 411.022 485.316 416.002 482.959 417.536Z" fill="#3F3D56"/>
<path opacity="0.05" d="M482.959 417.536C479.694 419.747 475.625 419.88 471.83 419.367C471.219 419.285 470.495 419.234 470.118 419.76C469.547 420.52 470.221 421.661 470.917 422.25C473.155 424.116 475.785 425.318 478.559 425.742C481.035 426.131 483.534 426.316 486.035 426.293C492.883 426.426 499.732 426.553 506.472 425.463C506.871 425.429 507.26 425.304 507.613 425.095C508.048 424.757 508.35 424.247 508.458 423.67C508.92 421.718 508.03 419.627 506.683 418.271C505.336 416.915 503.607 416.161 501.917 415.432L495.982 412.866C494.59 412.264 492.358 410.667 490.846 410.794C488.004 411.022 485.316 416.002 482.959 417.536Z" fill="black"/>
<path d="M487.119 330.052C484.648 333.702 482.091 337.916 482.702 342.434C483.033 344.867 484.26 347.015 485.162 349.264C486.383 352.319 487.022 355.601 487.65 358.871C488.574 363.649 489.505 368.439 490.07 373.293C490.715 378.774 487.684 394.635 487.404 400.154C487.336 401.485 487.193 402.923 486.36 403.88C486.035 404.26 485.601 404.565 485.453 405.059C485.366 405.535 485.437 406.03 485.652 406.453C487.045 409.938 489.893 412.536 493.072 414.019C496.25 415.502 503.915 418.062 507.379 418.195C507.836 418.251 508.298 418.183 508.726 417.998C509.187 417.686 509.55 417.224 509.765 416.674C512.247 411.402 509.862 392.658 509.896 386.708C509.93 381.746 510.986 376.816 510.792 371.861C510.632 367.882 509.65 363.991 509.325 360.024C508.754 353.523 509.827 346.99 510.906 340.564C511.728 335.634 512.555 330.704 513.611 325.838C514.256 322.866 515.004 319.869 516.465 317.29C517.606 315.243 519.21 313.532 520.54 311.587C524.23 306.214 525.87 299.445 525.105 292.741C525.025 292.108 516.545 295.13 515.797 295.492C512.746 296.926 509.94 298.93 507.499 301.416C505.536 303.495 503.989 306.27 502.271 308.596C499.84 311.887 497.439 315.201 495.069 318.538C492.364 322.353 489.714 326.191 487.119 330.052Z" fill="#464353"/>
<path opacity="0.05" d="M487.119 329.83C484.648 333.48 482.091 337.7 482.702 342.212C483.033 344.651 484.26 346.8 485.162 349.049C486.383 352.097 487.022 355.386 487.65 358.649C488.574 363.433 489.505 368.224 490.07 373.071C490.715 378.559 487.684 394.413 487.404 399.932C487.336 401.263 487.193 402.708 486.36 403.665C486.035 404.039 485.601 404.343 485.453 404.837C485.365 405.313 485.436 405.809 485.652 406.231C487.045 409.723 489.893 412.314 493.072 413.835C496.25 415.356 503.915 416.68 507.379 416.807C507.836 416.863 508.298 416.795 508.726 416.611C509.188 416.302 509.551 415.842 509.765 415.293C512.247 410.02 509.862 392.481 509.896 386.524C509.93 381.556 510.986 376.633 510.792 371.671C510.632 367.692 509.651 363.801 509.325 359.84C508.755 353.333 509.827 346.799 510.906 340.374C511.728 335.451 512.555 330.521 513.611 325.648C514.256 322.676 515.004 319.679 516.465 317.1C517.606 315.053 519.21 313.342 520.54 311.397C524.231 306.024 525.871 299.255 525.105 292.551C525.025 291.918 516.545 294.94 515.797 295.301C512.747 296.74 509.941 298.746 507.499 301.233C505.536 303.305 503.989 306.08 502.271 308.406C499.84 311.696 497.439 315.013 495.069 318.354C492.364 322.139 489.714 325.965 487.119 329.83Z" fill="black"/>
<path d="M459.623 249.665C467.272 249.665 473.474 242.779 473.474 234.286C473.474 225.792 467.272 218.907 459.623 218.907C451.973 218.907 445.772 225.792 445.772 234.286C445.772 242.779 451.973 249.665 459.623 249.665Z" fill="#FBBEBE"/>
<path d="M472.098 233.639C473.378 235.906 475.056 237.863 477.031 239.393C479.007 240.924 481.24 241.997 483.598 242.549L482.553 246.763C480.75 253.999 478.724 261.654 473.69 266.672C474.261 264.22 473.531 261.603 472.286 259.474C471.042 257.345 469.296 255.672 467.584 254.018L459.611 246.351C459.381 246.143 459.187 245.889 459.04 245.603C458.844 245.062 458.844 244.458 459.04 243.917C460.056 240.407 462.955 238.214 465.318 235.844C466.504 234.619 467.562 233.25 468.474 231.764C470.066 229.242 471.054 231.776 472.098 233.639Z" fill="#FBBEBE"/>
<path d="M441.377 218.824L441.063 215.935C443.249 216.568 445.326 214.503 446.725 212.367C448.123 210.232 449.418 207.716 451.547 206.823C454.132 205.745 456.872 207.456 459.343 208.901C462.109 210.606 465.146 211.703 468.286 212.133C468.787 212.151 469.283 212.241 469.764 212.399C471.373 213.032 472.138 215.276 472.372 217.31C472.606 219.344 472.543 221.505 473.337 223.317C473.907 224.692 474.969 225.712 475.619 227.068C477.331 230.705 475.676 235.68 477.463 239.247L473.023 234.729C472.617 234.317 472.047 233.886 471.596 234.235C471.242 234.514 471.214 235.116 471.071 235.597C470.643 237.004 469.056 237.422 467.909 236.865C466.762 236.307 465.923 235.097 465.056 233.994C463.092 231.421 460.753 229.159 458.013 228.063C456.812 227.565 455.53 227.355 454.251 227.449C452.972 227.543 451.725 227.938 450.594 228.608C448.522 229.907 447.004 232.936 444.465 233.044C440.983 233.189 439.534 225.991 437.924 223.146C438.513 222.654 438.928 221.947 439.095 221.15C439.262 220.353 439.171 219.516 438.838 218.786C439.072 218.678 441.326 218.381 441.377 218.824Z" fill="#464353"/>
<path d="M270.057 128.913C268.944 130.012 267.916 131.212 266.981 132.5C266.041 133.805 265.54 135.435 265.566 137.107C265.571 137.591 265.71 138.063 265.965 138.456C266.096 138.645 266.276 138.783 266.48 138.852C266.685 138.922 266.904 138.918 267.107 138.843C267.336 138.713 267.532 138.521 267.678 138.285C268.281 137.48 268.921 136.71 269.595 135.979C269.84 135.706 270.166 135.421 270.497 135.522C270.645 135.581 270.778 135.679 270.885 135.807C271.269 136.176 271.548 136.66 271.69 137.202C271.889 138.171 271.381 139.141 270.805 139.901C270.229 140.661 269.549 141.39 269.315 142.347C269.227 142.6 269.227 142.88 269.315 143.133C269.426 143.315 269.58 143.46 269.761 143.551C270.578 144.05 271.484 144.345 272.415 144.413C273.346 144.48 274.279 144.32 275.148 143.944C276.289 143.431 277.305 142.55 278.481 142.093C278.99 141.939 279.483 141.726 279.953 141.46C280.29 141.211 280.578 140.891 280.803 140.518C281.027 140.145 281.182 139.726 281.26 139.286C281.409 138.407 281.438 137.508 281.346 136.619C281.204 133.176 280.54 129.785 279.383 126.588C279.316 126.381 279.202 126.198 279.052 126.055C278.88 125.939 278.682 125.88 278.481 125.884C277.02 125.713 274.623 124.883 273.213 125.485C272.72 125.785 272.295 126.205 271.969 126.714C271.707 127.038 270.057 128.489 270.057 128.913Z" fill="#A1616A"/>
<path d="M269.595 127.481C269.595 125.935 267.883 122.203 270.605 121.956C270.605 120.302 268.499 119.275 268.893 117.52C269.019 116.937 269.464 116.462 269.515 115.866C269.686 114.174 266.936 113.255 267.392 111.633C267.563 110.999 268.168 110.632 268.3 110.005C268.608 108.541 266.251 107.888 266.205 106.386C266.205 105.879 266.462 105.404 266.439 104.897C266.439 104.264 265.943 103.782 265.669 103.231C264.955 101.818 265.303 99.6314 264.002 98.9027C264.864 98.9851 265.144 97.5657 264.79 96.6976C264.436 95.8294 263.711 95.0754 263.705 94.1122C263.748 93.7632 263.748 93.4093 263.705 93.0603C263.466 92.1352 262.102 92.0591 261.873 91.1593C261.844 90.8139 261.834 90.4668 261.845 90.1201C261.754 89.4041 261.092 88.9478 260.47 88.7451C259.823 88.6232 259.201 88.3766 258.632 88.0163C258.232 87.6805 257.77 87.1229 257.342 87.3827C257.182 87.4904 257.102 87.6932 256.983 87.8452C256.469 88.5106 255.487 88.2191 254.842 87.7312C252.936 86.2928 251.989 83.7137 251.584 81.1981C251.178 78.6824 251.19 76.0844 250.682 73.5941C250.527 72.818 250.321 72.0555 250.066 71.3129C249.849 70.6792 249.152 69.6844 249.107 69.0444C249.004 67.5869 251.721 68.5818 252.754 68.7275C253.757 68.8363 254.748 69.0484 255.716 69.3612C256.748 69.7944 257.76 70.2872 258.746 70.8376C262.867 72.859 267.843 73.1062 271.153 76.5026C272.243 77.6179 273.162 79.0816 274.577 79.5886C275.226 79.7267 275.867 79.9109 276.495 80.1399C278.064 80.9573 278.31 83.2702 279.166 84.9431C279.435 85.3848 279.67 85.8512 279.868 86.3371C280.033 86.9102 280.11 87.5099 280.096 88.1114L280.216 92.5027C280.41 99.8596 280.604 107.235 279.896 114.548C279.668 116.962 279.326 119.446 279.971 121.765C280.142 122.399 280.381 122.995 280.541 123.635C280.682 124.385 280.755 125.149 280.758 125.916L280.849 128.761C280.881 128.982 280.836 129.209 280.724 129.395C280.628 129.481 280.517 129.542 280.397 129.574C280.278 129.606 280.153 129.607 280.033 129.579C276.466 129.224 272.86 126.993 269.492 128.343" fill="#464353"/>
<path d="M432.371 346.096C455.683 346.096 474.581 343.063 474.581 339.322C474.581 335.581 455.683 332.548 432.371 332.548C409.06 332.548 390.162 335.581 390.162 339.322C390.162 343.063 409.06 346.096 432.371 346.096Z" fill="#504F60"/>
<path d="M468.685 339.652C467.943 336.122 467.481 333.024 467.481 333.024C467.481 333.024 467.652 329.184 466.1 326.3V325.337V318.24C466.542 316.951 467.082 315.707 467.715 314.521C468.857 312.29 467.715 304.116 467.715 304.116C467.715 304.116 463.452 292.589 464.485 285.277C465.518 277.964 455.73 252.808 455.73 252.808C455.791 250.382 456.099 247.971 456.649 245.622C456.754 245.128 456.796 244.621 456.775 244.114C456.775 244.05 456.775 243.993 456.775 243.93C456.775 243.867 456.775 243.968 456.775 243.987C456.626 239.165 453.191 230.129 453.191 230.129L453.653 212.906C453.653 212.906 455.845 202.767 452.272 189.112C451.022 184.353 450.223 180.544 449.715 177.604C449.658 177.275 449.601 176.971 449.555 176.647C456.912 175.38 462.533 174.366 462.533 174.366C462.533 174.366 458.264 154.539 455.382 151.066C452.5 147.594 450.195 136.688 450.195 136.688C450.195 136.688 448.694 122.691 451.119 118.597C453.545 114.504 453.887 107.445 453.887 107.445C453.887 107.445 459.417 103.009 460.113 101C460.81 98.9915 461.957 94.5558 461.957 92.2049C461.957 89.854 461.266 87.7692 461.494 86.5019C461.723 85.2346 459.879 80.5518 460.804 78.3213C461.043 77.6361 461.167 76.908 461.169 76.1731C461.171 76.1521 461.171 76.1308 461.169 76.1098C461.178 74.1579 461.015 72.2097 460.684 70.2927C459.084 68.7929 457.217 67.6851 455.205 67.042L455.085 66.5097L454.772 65.1156C454.597 64.9871 454.416 64.8686 454.229 64.7608V64.2539L454.178 62.2388L455.046 57.7144C456.758 49.8443 447.29 48.672 447.29 48.672C446.716 47.4648 445.76 46.5352 444.607 46.0613C442.707 45.3199 444.293 57.8982 445.178 58.7346C445.846 59.3683 447.912 63.2843 448.91 65.2234L449.07 65.5402C448.914 65.6962 448.769 65.8657 448.637 66.0471L448.996 68.7782L449.053 69.1964C448.426 70.0616 447.916 71.0246 447.541 72.0543C447.541 72.0543 449.253 74.1581 448.928 76.49C448.602 78.8219 449.458 81.7811 449.498 81.9395C449.396 81.8064 448.18 80.349 446.964 80.7038C445.749 81.0587 442.353 82.193 442.353 82.193C442.353 82.193 439.819 82.6872 440.07 83.3082C440.321 83.9292 438.358 86.654 438.358 86.654L431.544 79.4809C431.475 79.2654 431.401 79.05 431.344 78.8472C431.066 77.813 430.875 76.7523 430.773 75.6789C431.516 75.4829 432.245 75.2266 432.954 74.9121C433.67 74.6392 434.316 74.1783 434.837 73.5688C435.527 72.6626 435.659 71.4333 435.938 70.3054C436.475 68.1002 437.65 66.1422 438.467 64.0447C439.849 60.5005 440.294 56.5929 439.751 52.7782C439.646 51.6026 439.288 50.4723 438.706 49.4831C437.593 47.7849 435.573 47.0942 434.106 45.7381C432.64 44.3821 431.692 42.31 429.98 41.3024C428.434 40.3836 426.556 40.4914 424.81 40.8082C421.399 41.4327 418.122 42.7563 415.148 44.7116C414.155 45.3452 413.059 46.1246 411.917 45.8902C410.936 45.6937 410.205 44.8256 409.589 43.9892C409.596 43.9546 409.605 43.9207 409.617 43.8878C409.59 43.8569 409.565 43.823 409.543 43.7864C408.821 45.566 408.459 47.4997 408.482 49.4514C408.482 49.7556 408.482 50.0851 408.516 50.3575V50.6744C408.516 50.7631 408.516 50.8518 408.516 50.9342C408.516 51.0693 408.498 51.2036 408.465 51.3334C408.321 51.721 408.103 52.0692 407.825 52.3536C407.616 52.6178 407.425 52.8995 407.255 53.1964C407.255 53.095 407.312 52.9936 407.346 52.8859C406.911 53.5915 406.665 54.4201 406.638 55.2748C406.606 55.897 406.79 56.5092 407.152 56.9857C407.494 57.3541 407.866 57.6851 408.265 57.9742C408.129 58.8107 408.06 59.6589 408.059 60.5089C408.072 63.0287 408.671 65.5021 409.796 67.6901C410.922 69.878 412.537 71.7064 414.486 72.9985C414.565 73.2076 414.64 73.423 414.714 73.6321C415.587 76.1668 416.243 79.145 415.952 81.8698C415.952 82.0662 415.901 82.269 415.872 82.4654C415.844 82.6619 415.701 82.6745 415.627 82.7823C415.627 82.7823 404.367 82.909 401.719 80.2476C399.071 77.5862 395.03 86.7554 395.03 86.7554C395.03 86.7554 390.995 87.6235 390.185 86.7554C389.375 85.8872 384.655 86.635 384.655 86.635C382.721 84.7256 380.205 83.7059 377.618 83.7835C376.051 82.461 374.321 81.3941 372.482 80.6151L372.356 80.5644C371.544 80.2359 370.676 80.1146 369.817 80.2096C369.817 80.2096 364.281 75.1403 362.666 72.4028C361.05 69.6654 353.363 59.5584 353.329 59.514V59.0261L353.243 57.556C353.015 57.5958 352.784 57.617 352.553 57.6194C352.513 57.4736 352.456 57.3025 352.399 57.1061C351.956 55.6721 351.41 54.2799 350.766 52.9429C350.766 52.9429 350.766 51.0863 351.252 50.6173C351.737 50.1484 351.052 43.3365 351.052 43.3365C351.052 43.3365 346.064 30.3907 341.595 40.0541C341.595 40.0541 333.149 46.3084 340.237 53.5956C340.237 53.5956 343.09 55.1164 343.467 56.3203C343.73 57.0998 344.688 59.2859 345.333 60.756L345.624 61.3897L345.544 61.4657L345.647 62.6824L345.693 63.1513C344.357 63.994 343.45 64.8305 343.673 65.4578C344.066 66.5313 344.336 67.6554 344.477 68.8036C344.477 68.8036 354.282 82.4401 355.549 88.2635C355.549 88.2635 381.841 105.613 390.487 106.849L388.958 115.498C388.735 117.846 388.621 120.204 388.616 122.564C388.73 124.421 387.577 132.848 387.577 132.848C387.577 132.848 386.076 145.243 384.809 146.979C383.542 148.715 383.77 156.148 383.77 156.148C383.471 159.707 382.898 163.23 382.058 166.68C380.791 171.388 381.71 177.218 381.71 177.218C381.71 177.218 377.333 188.37 387.822 180.811C387.822 180.811 392.959 180.456 398.905 180.228C398.905 180.443 398.905 180.665 398.905 180.861C398.905 181.71 398.905 182.629 398.865 183.592C398.785 189.98 398.751 198.8 399.014 205.441C399.476 217.215 402.706 240.515 402.706 240.515V252.244C402.498 253.344 402.394 254.465 402.398 255.59C402.33 259.716 403.319 263.78 405.252 267.306L406.062 275.113C406.062 275.113 407.957 280.258 407.991 283.35C407.984 283.6 407.957 283.848 407.911 284.092C407.837 284.486 407.807 284.888 407.82 285.29C407.711 288.838 409.635 297.329 409.635 297.329C409.635 297.329 409.749 305.877 410.902 306.378C411.889 306.802 409.583 311.302 408.898 312.594C408.88 312.515 408.867 312.435 408.858 312.353L408.716 312.607C408.478 313.299 408.356 314.033 408.356 314.774C408.291 315.358 408.377 315.95 408.603 316.482C408.83 317.013 409.187 317.463 409.635 317.778C411.826 319.267 413.002 320.502 411.141 320.997C410.457 321.115 409.779 321.273 409.11 321.472C409.11 321.377 409.041 321.275 409.013 321.187C408.75 321.3 408.531 321.512 408.393 321.784C408.254 322.057 408.205 322.374 408.253 322.682C408.271 323.687 408.504 324.673 408.933 325.559C410.776 330.147 412.054 331.896 412.054 331.896L412.939 331.788C412.808 332.163 412.636 332.519 412.425 332.846C412.089 333.378 411.643 333.812 411.124 334.114C410.641 334.435 410.102 334.64 409.543 334.716C408.918 334.738 408.304 334.907 407.742 335.21C407.18 335.514 406.681 335.945 406.279 336.477C405.137 338.131 404.407 340.38 406.678 342.358L414.925 345.526C414.925 345.526 429.113 347.573 428.359 344.037C427.606 340.501 427.149 337.409 427.149 337.409C427.21 335.25 426.82 333.105 426.008 331.142C425.859 330.821 425.692 330.512 425.506 330.216L426.008 330.159C426.008 330.159 427.047 322.346 428.428 320.864C428.747 320.521 428.822 320.23 428.747 320.052C428.89 319.628 428.525 319.381 428.063 319.235L427.96 319.546C427.508 319.436 427.047 319.379 426.585 319.374C426.585 319.374 426.122 315.287 427.623 313.798C427.744 313.628 427.833 313.433 427.883 313.223C427.933 313.014 427.944 312.796 427.914 312.582C427.926 312.021 427.872 311.461 427.754 310.915C427.74 310.95 427.722 310.984 427.703 311.016C426.95 307.303 424.393 301.404 424.393 301.404C424.393 301.404 424.279 297.69 425.203 296.201C426.128 294.712 425.084 276 425.084 276C425.084 276 425.432 266.958 424.393 262.744C423.354 258.53 425.66 253.568 425.66 253.568C425.66 253.568 425.66 253.473 425.66 253.302V253.239L425.529 251.813C425.525 251.842 425.525 251.872 425.529 251.902C425.295 249.506 424.855 245.166 424.53 243.163C424.068 240.312 424.65 226.688 424.65 226.688L426.721 220.858L430.414 230.902L434.335 244.285C434.335 244.285 436.275 247.111 436.321 249.988C436.321 250.127 436.321 250.267 436.321 250.406C436.289 250.703 436.274 251.001 436.275 251.3C436.206 252.99 436.623 254.662 437.468 256.071C437.468 256.071 438.507 262.408 440.122 263.998C441.737 265.589 441.737 268.706 441.737 268.706C441.737 268.706 443.694 277.882 444.59 279.479C445.366 280.835 445.406 284.548 445.401 285.708C445.401 285.917 445.401 286.037 445.401 286.037C445.401 286.037 445.675 289.32 445.663 292.07C445.663 292.412 445.663 292.741 445.663 293.052C445.666 293.029 445.666 293.005 445.663 292.982C445.663 293.734 445.582 294.482 445.423 295.213L445.389 295.339C445.389 295.181 445.389 295.029 445.429 294.877C445.028 296.744 444.836 298.66 444.858 300.58C444.807 303.875 445.258 307.778 447.056 310.085C450.172 314.052 452.129 313.557 452.129 313.557C452.129 313.557 450.634 318.513 448.785 319.508C448.715 319.544 448.65 319.591 448.591 319.647C448.591 319.546 448.557 319.45 448.545 319.355C448.339 319.603 448.182 319.895 448.084 320.214C447.985 320.532 447.948 320.87 447.975 321.206C447.843 323.386 449.082 326.909 450.257 328.55C450.694 329.025 451.229 329.373 451.815 329.564C451.723 329.637 451.625 329.702 451.524 329.76C451.319 329.885 451.108 329.997 450.891 330.096C450.591 330.238 450.273 330.329 449.949 330.369C449.323 330.387 448.708 330.554 448.146 330.858C447.583 331.161 447.084 331.595 446.685 332.13C445.543 333.778 444.813 336.027 447.084 338.004L455.331 341.173C455.331 341.173 469.427 343.181 468.685 339.652Z" fill="url(#paint0_linear)"/>
<path d="M414.52 345.507L406.53 342.339C404.327 340.362 405.029 338.112 406.142 336.458C406.525 335.931 407.005 335.5 407.551 335.197C408.096 334.893 408.694 334.722 409.304 334.697C409.845 334.62 410.364 334.415 410.827 334.095C411.334 333.789 411.768 333.355 412.094 332.827C412.677 331.8 412.991 330.613 413.002 329.399C413.002 329.399 421.768 326.548 424.165 329.399C424.592 329.915 424.95 330.498 425.226 331.129C426.023 333.097 426.412 335.239 426.368 337.396C426.368 337.396 426.813 340.488 427.538 344.024C428.262 347.56 414.52 345.507 414.52 345.507Z" fill="#2D293D"/>
<path d="M453.579 341.135L445.589 337.966C443.386 335.989 444.088 333.74 445.201 332.092C445.581 331.563 446.06 331.131 446.605 330.827C447.15 330.523 447.747 330.353 448.357 330.331C448.672 330.295 448.981 330.203 449.27 330.058C449.481 329.959 449.687 329.847 449.886 329.722C452.118 328.36 452.061 325.014 452.061 325.014C452.061 325.014 460.821 322.163 463.224 325.014C463.545 325.4 463.827 325.825 464.063 326.281C465.564 329.165 465.398 333.011 465.398 333.011C465.398 333.011 465.843 336.11 466.54 339.639C467.236 343.169 453.579 341.135 453.579 341.135Z" fill="#2D293D"/>
<path opacity="0.1" d="M424.17 329.393C424.598 329.909 424.956 330.492 425.232 331.123L412.106 332.815C412.689 331.787 413.003 330.6 413.013 329.386C413.013 329.386 421.773 326.541 424.17 329.393Z" fill="black"/>
<path opacity="0.1" d="M464.074 326.294V329.025C462.031 332.757 452.152 331.94 449.281 330.071C449.493 329.972 449.698 329.86 449.898 329.735C452.129 328.372 452.072 325.027 452.072 325.027C452.072 325.027 460.833 322.175 463.235 325.027C463.557 325.413 463.838 325.838 464.074 326.294Z" fill="black"/>
<path d="M465.632 314.521C465.021 315.711 464.5 316.955 464.074 318.24V328.03C461.837 332.117 450.234 330.755 448.665 328.525C447.096 326.294 445.458 320.49 447.221 319.482C448.985 318.475 450.457 313.532 450.457 313.532C450.457 313.532 448.557 314.026 445.543 310.059C442.53 306.093 443.426 297.297 443.985 295.194C444.545 293.09 443.985 286.025 443.985 286.025C443.985 286.025 444.099 281.063 443.209 279.453C442.319 277.844 440.418 268.681 440.418 268.681C440.418 268.681 440.418 265.582 438.855 263.973C437.291 262.363 436.286 256.039 436.286 256.039C435.372 254.459 434.979 252.576 435.174 250.71C435.505 247.612 433.273 244.266 433.273 244.266L429.478 230.876L425.905 220.839L423.896 226.663C423.896 226.663 423.326 240.293 423.788 243.138C424.25 245.983 424.929 253.549 424.929 253.549C424.929 253.549 422.698 258.504 423.702 262.718C424.707 266.932 424.342 275.987 424.342 275.987C424.342 275.987 425.346 294.693 424.45 296.182C423.554 297.671 423.668 301.391 423.668 301.391C423.668 301.391 428.234 312.29 426.796 313.779C425.357 315.268 425.791 319.355 425.791 319.355C425.791 319.355 428.913 319.355 427.577 320.845C426.242 322.334 425.232 330.14 425.232 330.14L411.735 331.896C411.735 331.896 410.502 330.166 408.716 325.559C406.929 320.952 409.047 321.472 410.844 320.971C412.642 320.471 411.506 319.241 409.383 317.752C407.26 316.263 408.493 312.917 408.493 312.917C408.493 312.917 411.729 306.847 410.61 306.353C409.492 305.858 409.383 297.304 409.383 297.304C409.383 297.304 407.152 287.165 407.711 284.415C408.271 281.665 405.925 275.125 405.925 275.125L405.143 267.319C402.755 262.889 401.884 257.652 402.689 252.567V240.527C402.689 240.527 399.562 217.234 399.116 205.46C398.831 197.919 398.911 187.629 399.002 181.21C399.059 177.61 399.116 175.222 399.116 175.222L447.33 169.645C447.33 169.645 447.284 172.117 448.203 177.598C448.699 180.538 449.47 184.346 450.68 189.105C454.138 202.735 452.021 212.893 452.021 212.893L451.57 230.122C451.57 230.122 455.81 241.642 454.92 245.609C454.382 247.965 454.079 250.379 454.018 252.808C454.018 252.808 463.503 277.964 462.499 285.277C461.494 292.589 465.621 304.116 465.621 304.116C465.621 304.116 466.751 312.29 465.632 314.521Z" fill="#464353"/>
<path opacity="0.05" d="M438.067 249.963L452.746 247.789C452.746 247.789 444.43 257.212 438.067 249.963Z" fill="black"/>
<path opacity="0.1" d="M450.623 231.865C450.623 231.865 451.125 237.631 447.946 239.798C447.946 239.798 453.636 238.81 450.623 231.865Z" fill="black"/>
<path opacity="0.1" d="M449.721 213.527C449.721 213.527 437.451 224.743 432.988 223.811C428.525 222.88 449.721 213.527 449.721 213.527Z" fill="black"/>
<path opacity="0.1" d="M419.873 255.222C419.873 255.222 410.553 257.573 410.274 261.73C409.994 265.887 419.873 255.222 419.873 255.222Z" fill="black"/>
<path opacity="0.05" d="M421.922 306.904C421.922 306.904 408.756 309.629 412.494 311.485C416.232 313.342 422.373 314.831 422.373 314.831C422.373 314.831 426.624 315.078 421.922 306.904Z" fill="black"/>
<g opacity="0.05">
<path opacity="0.05" d="M409.834 314.438C409.503 314.209 409.223 313.899 409.014 313.533C408.806 313.166 408.675 312.752 408.63 312.322L408.493 312.581C408.493 312.581 407.266 315.927 409.389 317.41C409.629 317.581 409.863 317.752 410.074 317.917C410.468 317.835 410.89 317.771 411.295 317.657C413.093 317.163 411.957 315.927 409.834 314.438Z" fill="black"/>
<path opacity="0.05" d="M426.796 313.443C427.161 313.076 427.149 312.125 426.927 310.909C426.356 311.865 426.191 313.361 426.179 314.495C426.318 314.101 426.528 313.743 426.796 313.443Z" fill="black"/>
<path opacity="0.05" d="M424.77 251.794C424.285 253.26 423.985 254.793 423.879 256.35C424.134 255.274 424.476 254.227 424.901 253.22L424.77 251.794Z" fill="black"/>
<path opacity="0.05" d="M454.926 245.292C455.013 244.847 455.054 244.392 455.046 243.936C454.88 244.861 454.766 245.717 454.68 246.471C454.754 246.084 454.834 245.717 454.926 245.292Z" fill="black"/>
<path opacity="0.05" d="M424.456 295.853C424.638 295.548 424.741 294.522 424.787 293.096C424.374 294.199 424.155 295.38 424.142 296.575C424.22 296.321 424.325 296.078 424.456 295.853Z" fill="black"/>
<path opacity="0.05" d="M427.195 319.222C426.503 321.708 425.99 324.251 425.66 326.826L412.163 328.556C412.163 328.556 410.93 326.826 409.144 322.22C409 321.864 408.872 321.5 408.761 321.13C407.951 321.542 407.62 322.473 408.693 325.191C410.479 329.779 411.718 331.528 411.718 331.528L425.215 329.792C425.215 329.792 426.219 321.985 427.555 320.496C428.239 319.78 427.817 319.406 427.195 319.222Z" fill="black"/>
<path opacity="0.05" d="M409.389 296.968C409.389 296.968 409.498 305.516 410.616 306.01C411.187 304.597 411.558 303.254 411.056 303.032C409.914 302.538 409.829 293.983 409.829 293.983C409.829 293.983 407.597 283.845 408.156 281.095C408.716 278.344 406.37 271.805 406.37 271.805L405.588 263.998C403.2 259.568 402.329 254.331 403.134 249.246V237.207C403.134 237.207 400.007 213.913 399.562 202.14C399.276 194.599 399.356 184.308 399.447 177.889C399.447 176.73 399.482 175.703 399.499 174.835L399.116 174.879C399.116 174.879 399.054 177.262 399.002 180.867C398.911 187.287 398.825 197.577 399.116 205.112C399.562 216.885 402.683 240.185 402.683 240.185V252.225C401.882 257.308 402.755 262.542 405.143 266.97L405.919 274.777C405.919 274.777 408.265 281.342 407.706 284.073C407.146 286.804 409.389 296.968 409.389 296.968Z" fill="black"/>
<path opacity="0.05" d="M449.122 325.217C448.025 323.454 447.294 321.444 446.981 319.33C445.606 320.711 447.187 326.072 448.694 328.201C450.252 330.432 461.86 331.794 464.103 327.701V325.343C461.061 328.658 450.594 327.327 449.122 325.217Z" fill="black"/>
<path opacity="0.05" d="M466.083 311.213C465.471 312.403 464.948 313.647 464.519 314.932V316.688C464.776 316.054 465.136 315.205 465.661 314.204C466.014 313.228 466.181 312.181 466.151 311.13C466.151 311.13 466.1 311.187 466.083 311.213Z" fill="black"/>
<path opacity="0.05" d="M449.806 313.171C450.231 312.216 450.599 311.232 450.908 310.224C450.908 310.224 449.008 310.718 445.994 306.752C443.803 303.869 443.677 298.419 443.991 294.858C443.42 296.968 442.536 305.763 445.549 309.73C447.518 312.322 449.007 313.006 449.806 313.171Z" fill="black"/>
<path opacity="0.05" d="M443.985 285.689C444.182 288.13 444.256 290.582 444.208 293.033C444.264 292.646 444.34 292.263 444.436 291.886C445.007 289.776 444.436 282.717 444.436 282.717C444.436 282.717 444.55 277.755 443.654 276.146C442.758 274.536 440.892 265.361 440.892 265.361C440.892 265.361 440.892 262.262 439.328 260.653C437.765 259.043 436.76 252.719 436.76 252.719C435.838 251.142 435.434 249.259 435.619 247.39C435.955 244.291 433.724 240.945 433.724 240.945L429.929 227.562L426.356 217.525L424.342 223.355C424.342 223.355 424.342 224.09 424.273 225.256L425.905 220.522L429.478 230.541L433.273 243.924C433.273 243.924 435.505 247.269 435.168 250.368C434.984 252.237 435.387 254.12 436.309 255.697C436.309 255.697 437.314 262.034 438.877 263.631C440.441 265.228 440.435 268.339 440.435 268.339C440.435 268.339 442.336 277.508 443.226 279.111C444.117 280.714 443.985 285.689 443.985 285.689Z" fill="black"/>
</g>
<path d="M453.356 57.6953L452.517 62.2197L452.569 64.2348L452.603 65.7175L447.946 66.2498L447.427 65.1789C446.462 63.2399 444.459 59.2985 443.814 58.6902C442.952 57.8918 441.417 45.3071 443.243 46.0549C444.368 46.537 445.291 47.4649 445.834 48.6592C445.834 48.6592 455.006 49.8252 453.356 57.6953Z" fill="#FFCDD3"/>
<path opacity="0.1" d="M452.603 65.7176L447.946 66.2499L447.427 65.179C448.053 64.3872 448.907 63.861 449.844 63.69C450.78 63.519 451.741 63.7138 452.563 64.2411L452.603 65.7176Z" fill="black"/>
<path d="M453.779 68.1699L447.638 69.7477L447.507 68.7338L447.158 66.0027C447.158 66.0027 449.59 62.4035 453.105 65.1029L453.413 66.4906L453.779 68.1699Z" fill="#0046BB"/>
<path d="M354.305 58.1896L347.747 62.093L347.177 60.7243C346.555 59.2732 345.624 57.087 345.368 56.2886C344.979 55.0846 342.246 53.5638 342.246 53.5638C335.397 46.283 343.558 40.0224 343.558 40.0224C347.884 30.359 352.69 43.3048 352.69 43.3048C352.69 43.3048 353.363 50.1294 352.889 50.5856C352.416 51.0418 352.416 52.9112 352.416 52.9112C353.041 54.2504 353.569 55.6425 353.997 57.0744C354.196 57.7651 354.305 58.1896 354.305 58.1896Z" fill="#FFCDD3"/>
<path opacity="0.1" d="M354.305 58.1896L347.747 62.093L347.177 60.7243C348.101 59.8625 351.383 56.9223 352.461 57.0427C352.976 57.114 353.496 57.1289 354.014 57.087C354.196 57.765 354.305 58.1896 354.305 58.1896Z" fill="black"/>
<path d="M354.973 60.3884L347.605 64.4185L347.456 62.6632L347.354 61.4466C347.354 61.4466 351.622 57.3848 352.884 57.5432C353.521 57.6458 354.169 57.6458 354.807 57.5432L354.893 59.0133L354.973 60.3884Z" fill="#0046BB"/>
<path d="M435.499 87.7502C435.499 87.7502 403.38 91.774 409.383 89.6069C413.561 88.0924 415.222 85.1712 415.57 81.8761C415.855 79.1323 415.216 76.1731 414.377 73.6384C413.622 71.3899 412.666 69.2309 411.524 67.1941C411.524 67.1941 436.064 52.2015 431.162 65.8317C430.406 67.8933 429.936 70.0705 429.769 72.2887C429.622 74.4932 429.836 76.709 430.403 78.8282C431.328 82.2668 433.092 85.3545 435.499 87.7502Z" fill="#FFCDD3"/>
<path opacity="0.1" d="M431.144 65.8126C430.388 67.8743 429.919 70.0515 429.752 72.2697C427.44 74.4305 424.907 74.2848 421.648 74.2848C419.148 74.2848 416.375 74.9564 414.377 73.6194C413.622 71.3708 412.666 69.2119 411.524 67.175C411.524 67.175 436.058 52.1824 431.144 65.8126Z" fill="black"/>
<path d="M421.214 75.2352C428.549 75.2352 434.495 68.6335 434.495 60.4898C434.495 52.3461 428.549 45.7444 421.214 45.7444C413.88 45.7444 407.934 52.3461 407.934 60.4898C407.934 68.6335 413.88 75.2352 421.214 75.2352Z" fill="#FFCDD3"/>
<path opacity="0.1" d="M435.499 87.7501C435.499 87.7501 403.38 91.774 409.383 89.6068C413.561 88.0923 415.222 85.1711 415.57 81.8761C417.168 79.9751 420.381 78.562 422.418 77.8269C424.302 77.1236 426.336 77.086 428.24 77.7192C428.988 77.9696 429.701 78.3366 430.357 78.8091C431.293 82.2604 433.073 85.3556 435.499 87.7501Z" fill="black"/>
<path opacity="0.1" d="M453.779 68.1698L447.638 69.7477L447.507 68.7338C448.164 67.731 449.084 66.9776 450.141 66.5762C451.198 66.1748 452.34 66.1449 453.413 66.4906L453.779 68.1698Z" fill="black"/>
<path opacity="0.1" d="M354.973 60.3885L347.605 64.4186L347.456 62.6633C349.843 61.2386 352.323 60.0164 354.875 59.0071L354.973 60.3885Z" fill="black"/>
<path opacity="0.1" d="M448.203 177.61C435.756 179.816 418.064 182.629 415.256 181.679C412.922 180.893 405.48 180.975 399.002 181.222C399.059 177.623 399.116 175.234 399.116 175.234L447.33 169.658C447.33 169.658 447.284 172.129 448.203 177.61Z" fill="black"/>
<path d="M460.61 174.366C460.61 174.366 419.65 182.173 415.256 180.703C410.862 179.233 388.29 180.823 388.29 180.823C378.132 188.383 382.372 177.23 382.372 177.23C382.372 177.23 381.482 171.407 382.709 166.699C383.533 163.242 384.096 159.715 384.392 156.155C384.392 156.155 384.17 148.715 385.397 146.979C386.624 145.243 388.079 132.855 388.079 132.855C388.079 132.855 389.192 124.427 389.083 122.57C388.975 120.714 389.414 115.505 389.414 115.505L390.87 106.83C382.498 105.594 357.05 88.2445 357.05 88.2445C355.823 82.4211 346.338 68.7909 346.338 68.7909C346.2 67.6447 345.937 66.5213 345.556 65.4451C344.888 63.4617 354.933 59.495 354.933 59.495C354.933 59.495 362.409 69.6337 363.972 72.3838C365.536 75.1339 370.889 80.1906 370.889 80.1906C371.721 80.0956 372.561 80.2171 373.343 80.5454L373.475 80.5898C375.269 81.3717 376.951 82.439 378.468 83.7581C380.985 83.6918 383.427 84.7143 385.277 86.6096C385.277 86.6096 389.843 85.8619 390.636 86.73C391.429 87.5981 395.321 86.73 395.321 86.73C395.321 86.73 399.225 77.5608 401.793 80.2222C404.361 82.8836 415.256 82.7569 415.256 82.7569C416.706 80.6151 420.238 79.0816 422.447 78.3212C424.331 77.6208 426.364 77.5832 428.268 78.2135C429.089 78.4857 429.862 78.9145 430.551 79.4809L437.177 86.6666C437.177 86.6666 439.071 83.9355 438.849 83.3209C438.626 82.7062 441.08 82.2056 441.08 82.2056C441.08 82.2056 444.316 81.0904 445.543 80.7165C446.77 80.3426 447.895 81.8191 447.997 81.9521C447.957 81.7937 447.118 78.7838 447.427 76.5026C447.735 74.2214 446.085 72.067 446.085 72.067C449.989 61.4087 458.806 70.3307 458.806 70.3307C458.806 70.3307 459.811 76.1541 458.921 78.3846C458.03 80.6151 459.811 85.3233 459.588 86.5652C459.366 87.8072 460.039 89.911 460.039 92.2682C460.039 94.6255 458.898 99.0802 458.253 101.064C457.608 103.047 452.226 107.508 452.226 107.508C452.226 107.508 451.889 114.573 449.544 118.66C447.198 122.748 448.671 136.726 448.671 136.726C448.671 136.726 450.902 147.632 453.693 151.104C456.484 154.577 460.61 174.366 460.61 174.366Z" fill="#3F3D56"/>
<path opacity="0.1" d="M400.903 92.8259C400.903 92.8259 399.676 88.7387 398.557 88.3902C397.447 87.9367 396.365 87.3989 395.321 86.7807L396.04 85.2535C396.04 85.2535 400.229 86.5209 400.903 87.8959C401.576 89.271 400.903 92.8259 400.903 92.8259Z" fill="black"/>
<path opacity="0.1" d="M378.468 83.7834C378.246 85.0508 368.31 86.1343 368.31 86.1343L373.332 80.5454L373.458 80.5961C375.259 81.3823 376.947 82.4561 378.468 83.7834Z" fill="black"/>
<path d="M349.728 67.7644C350.219 67.7644 350.618 67.3218 350.618 66.7759C350.618 66.2299 350.219 65.7874 349.728 65.7874C349.236 65.7874 348.837 66.2299 348.837 66.7759C348.837 67.3218 349.236 67.7644 349.728 67.7644Z" fill="#575988"/>
<path d="M350.869 69.7477C351.361 69.7477 351.759 69.3051 351.759 68.7591C351.759 68.2132 351.361 67.7706 350.869 67.7706C350.377 67.7706 349.979 68.2132 349.979 68.7591C349.979 69.3051 350.377 69.7477 350.869 69.7477Z" fill="#575988"/>
<path d="M351.988 71.579C352.479 71.579 352.878 71.1364 352.878 70.5905C352.878 70.0445 352.479 69.6019 351.988 69.6019C351.496 69.6019 351.097 70.0445 351.097 70.5905C351.097 71.1364 351.496 71.579 351.988 71.579Z" fill="#575988"/>
<path d="M353.158 73.556C353.649 73.556 354.048 73.1135 354.048 72.5675C354.048 72.0216 353.649 71.579 353.158 71.579C352.666 71.579 352.267 72.0216 352.267 72.5675C352.267 73.1135 352.666 73.556 353.158 73.556Z" fill="#575988"/>
<path d="M458.361 73.2645C458.762 73.2645 459.086 72.9042 459.086 72.4598C459.086 72.0153 458.762 71.655 458.361 71.655C457.961 71.655 457.637 72.0153 457.637 72.4598C457.637 72.9042 457.961 73.2645 458.361 73.2645Z" fill="#575988"/>
<path d="M458.475 75.0958C458.876 75.0958 459.2 74.7355 459.2 74.2911C459.2 73.8466 458.876 73.4863 458.475 73.4863C458.075 73.4863 457.751 73.8466 457.751 74.2911C457.751 74.7355 458.075 75.0958 458.475 75.0958Z" fill="#575988"/>
<path d="M458.572 76.9208C458.973 76.9208 459.297 76.5605 459.297 76.116C459.297 75.6716 458.973 75.3113 458.572 75.3113C458.172 75.3113 457.848 75.6716 457.848 76.116C457.848 76.5605 458.172 76.9208 458.572 76.9208Z" fill="#575988"/>
<path opacity="0.1" d="M400.943 126.41C400.834 126.264 425.997 161.541 445.526 141.156C445.543 141.162 414.685 145.807 400.943 126.41Z" fill="black"/>
<path opacity="0.1" d="M386.504 144.749C386.504 144.749 401.559 145.205 403.134 150.014V155.02C402.706 155.284 402.223 155.423 401.733 155.423C401.243 155.423 400.761 155.284 400.332 155.02C398.814 154.108 389.711 148.975 386.504 151.446V144.749Z" fill="black"/>
<path d="M386.784 144.749C386.784 144.749 401.182 145.186 402.689 149.774V154.539C402.279 154.792 401.817 154.924 401.348 154.924C400.879 154.924 400.417 154.792 400.007 154.539C398.557 153.677 389.854 148.779 386.784 151.136V144.749Z" fill="#3F3D56"/>
<path opacity="0.1" d="M394.722 108.452C396.26 112.405 398.22 116.139 400.56 119.573C403.105 123.369 406.189 126.68 409.692 129.376C409.692 129.376 394.973 110.746 394.722 108.452Z" fill="black"/>
<path opacity="0.1" d="M389.797 89.0302C389.797 89.0302 392.308 101.07 398.78 105.157L389.797 89.0302Z" fill="black"/>
<path opacity="0.1" d="M385.945 90.2468C385.882 90.025 383.713 99.7518 394.288 105.157C394.288 105.157 389.797 103.465 385.945 90.2468Z" fill="black"/>
<path opacity="0.1" d="M451.684 82.1739C451.519 82.1739 456.9 85.9759 458.367 87.7502C458.367 87.7502 454.863 81.9205 451.684 82.1739Z" fill="black"/>
<path d="M417.624 73.8539C417.626 74.1756 417.688 74.4933 417.807 74.787C417.925 75.0807 418.097 75.3439 418.311 75.5601C418.526 75.7763 418.778 75.9407 419.053 76.0429C419.328 76.1452 419.619 76.183 419.907 76.1541C423.954 76.4329 428.171 76.6294 431.892 74.8868C432.59 74.6102 433.217 74.1491 433.718 73.5434C434.38 72.6373 434.512 71.4079 434.78 70.28C435.305 68.0749 436.423 66.1168 437.228 64.0194C438.59 60.4758 439.046 56.5843 438.546 52.7718C438.441 51.6032 438.093 50.4775 437.531 49.4831C436.458 47.7785 434.5 47.0878 433.079 45.7318C431.658 44.3757 430.745 42.3036 429.084 41.2961C427.589 40.3709 425.757 40.485 424.073 40.8018C420.762 41.4262 417.589 42.7491 414.725 44.6989C413.761 45.3326 412.705 46.112 411.598 45.8775C410.628 45.6747 409.92 44.7686 409.315 43.9195C408.537 45.9473 408.21 48.1534 408.362 50.3512C408.404 50.6737 408.394 51.0019 408.333 51.3207C408.194 51.7061 407.982 52.0539 407.711 52.3409C406.713 53.6082 406.09 55.6677 407.078 56.973C407.506 57.537 408.168 57.8475 408.584 58.4241C409.332 59.457 409.081 60.9588 409.064 62.2768C409.023 62.737 409.128 63.1988 409.361 63.5822C409.577 63.8056 409.841 63.9633 410.128 64.0399C410.415 64.1165 410.715 64.1095 410.999 64.0194C411.564 63.8303 412.158 63.7678 412.745 63.8356C413.364 64.059 413.898 64.5049 414.263 65.103C416.106 67.7707 416.837 70.6729 417.624 73.8539Z" fill="#2D293D"/>
<g opacity="0.1">
<path opacity="0.1" d="M434.192 72.4218C433.69 73.0275 433.064 73.4886 432.366 73.7652C428.622 75.4951 424.41 75.2987 420.381 75.0325C419.948 75.0373 419.521 74.9311 419.131 74.722C418.515 74.3228 418.281 73.4864 418.092 72.726C417.305 69.5577 416.58 66.6491 414.708 64.0067C414.347 63.3972 413.813 62.9398 413.19 62.7077C412.603 62.6462 412.01 62.7085 411.444 62.8915C411.16 62.9824 410.861 62.9905 410.574 62.915C410.287 62.8395 410.022 62.683 409.806 62.4606C409.573 62.0772 409.468 61.6155 409.509 61.1552C409.509 59.8245 409.777 58.3354 409.03 57.3025C408.613 56.7259 407.951 56.4154 407.523 55.8451C407.244 55.4246 407.072 54.928 407.027 54.408C406.982 53.8881 407.065 53.3642 407.266 52.8922C406.553 54.1595 406.25 55.75 407.078 56.84C407.506 57.4039 408.168 57.7144 408.585 58.2911C409.332 59.3303 409.081 60.8257 409.064 62.1438C409.02 62.6033 409.123 63.0653 409.355 63.4491C409.571 63.6736 409.837 63.832 410.125 63.9086C410.413 63.9852 410.714 63.9776 410.999 63.8863C411.564 63.6972 412.158 63.6348 412.745 63.7026C413.364 63.926 413.898 64.3719 414.263 64.9699C416.129 67.6123 416.86 70.5145 417.647 73.6955C417.74 74.4783 418.092 75.1946 418.635 75.7042C419.026 75.9136 419.456 76.0178 419.89 76.0084C423.936 76.2872 428.154 76.49 431.875 74.741C432.574 74.4663 433.201 74.005 433.701 73.3977C433.953 73.0407 434.146 72.6375 434.272 72.2064C434.278 72.2888 434.238 72.3585 434.192 72.4218Z" fill="black"/>
<path opacity="0.1" d="M408.362 50.9341C408.541 50.718 408.679 50.4636 408.767 50.1864C408.819 49.8658 408.819 49.5375 408.767 49.2169C408.656 47.4103 408.867 45.597 409.389 43.8814L409.315 43.7864C408.534 45.8111 408.207 48.0159 408.362 50.2118C408.379 50.4522 408.379 50.6937 408.362 50.9341Z" fill="black"/>
</g>
<path opacity="0.1" d="M415.256 82.7886C415.256 82.7886 431.846 85.2346 433.336 82.4655L415.256 82.7886Z" fill="black"/>
<path opacity="0.1" d="M447.507 75.1655C447.507 75.1655 456.729 75.1655 458.755 79.0182L447.507 75.1655Z" fill="black"/>
<path d="M499.104 417.441C496.369 420.156 492.814 421.631 489.145 421.572C488.209 421.572 486.914 421.769 486.908 422.808C486.931 423.113 487.025 423.406 487.182 423.657C488.34 425.8 490.168 427.395 492.318 428.137C494.316 428.809 496.45 428.695 498.533 428.574L504.611 428.226C505.753 428.156 506.894 428.093 508.035 427.934C509.177 427.776 510.421 427.516 511.614 427.301C514.545 426.838 517.508 426.685 520.465 426.844C521.253 426.876 522.178 426.844 522.645 426.211C523.113 425.577 522.874 424.367 522.697 423.416C522.332 421.458 522.697 419.405 522.36 417.441C521.789 413.994 519.101 411.351 516.157 410.103C513.417 408.95 508.566 407.625 505.975 409.552C503.242 411.573 501.569 414.95 499.104 417.441Z" fill="#3F3D56"/>
<path d="M505.142 301.949C505.678 304.781 508.15 306.948 508.218 309.838C508.281 312.157 506.791 314.102 505.718 316.086C504.707 318.14 503.854 320.285 503.167 322.498C501.147 328.261 498.64 333.799 495.68 339.037C494.253 341.572 492.655 344.278 492.98 347.224C493.208 348.602 493.646 349.927 494.276 351.14L498.556 360.582C499.494 362.467 500.227 364.468 500.742 366.545C501.113 368.338 501.147 370.195 501.364 372.019C502.037 377.811 504.486 383.641 503.036 389.255C502.911 389.737 502.465 390.32 502.117 389.984C503.533 392.918 504.668 395.871 504.56 399.197C504.503 400.94 504.023 402.759 504.6 404.381C504.845 405.059 505.273 405.693 505.267 406.421C505.267 406.903 505.068 407.353 505.022 407.822C504.902 409.159 506.009 410.274 507.157 410.698C508.304 411.123 509.554 411.091 510.712 411.478C512.938 412.219 514.53 414.348 516.419 415.825C518.357 417.307 520.641 418.133 522.994 418.201C523.329 418.241 523.668 418.166 523.964 417.986C524.132 417.823 524.266 417.622 524.359 417.397C524.451 417.172 524.499 416.928 524.5 416.68C524.604 415.497 524.443 414.303 524.033 413.205C523.623 412.106 522.976 411.137 522.149 410.382C521.786 410.13 521.486 409.781 521.276 409.368C521.169 409.002 521.142 408.613 521.196 408.234C521.54 403.04 521.456 397.822 520.945 392.645C520.714 391.005 520.639 389.342 520.722 387.684C520.842 386.302 521.219 384.934 521.082 383.559C520.945 382.184 520.311 380.929 519.94 379.604C519.278 377.247 519.461 374.713 519.37 372.248C519.255 367.964 518.371 363.756 517.492 359.574C517.144 357.933 516.761 356.216 515.717 354.999C514.827 353.966 513.389 352.978 513.725 351.603C513.912 351.096 514.19 350.637 514.541 350.253C514.955 349.677 515.258 349.014 515.433 348.303C515.607 347.593 515.65 346.851 515.557 346.122C515.933 346.228 516.33 346.186 516.681 346.004C517.031 345.821 517.314 345.509 517.481 345.12C524.432 341.477 530.036 334.19 532.536 326.11C532.683 325.51 532.91 324.938 533.209 324.412C533.854 323.411 534.973 322.98 535.966 322.429C539.082 320.686 541.233 317.423 543.208 314.229C544.349 312.379 545.491 310.465 546.004 308.285C546.274 306.875 546.403 305.437 546.387 303.995L546.564 296.55C546.602 296.06 546.56 295.566 546.438 295.092C546.269 294.65 546.023 294.25 545.713 293.914C543.815 291.685 541.322 290.192 538.602 289.655C536.776 289.294 534.91 289.364 533.061 289.193C529.477 288.863 525.938 287.628 522.354 287.926C516.722 288.388 511.705 292.722 509.051 298.261C508.121 300.212 507.139 301.911 505.142 301.949Z" fill="#464353"/>
<path d="M473.867 253.536C473.943 254.686 473.803 255.84 473.456 256.927C473.017 257.966 471.916 258.777 470.951 258.352C471.242 257.624 470.472 256.793 469.753 256.882C469.399 256.973 469.07 257.157 468.795 257.42C468.519 257.683 468.306 258.016 468.172 258.39C467.695 259.455 467.535 260.659 467.715 261.831C467.943 263.289 468.702 264.689 468.503 266.153C468.343 267.369 467.538 268.58 467.966 269.708C468.244 270.223 468.592 270.687 468.999 271.083C469.563 271.854 469.839 272.836 469.77 273.826C469.701 274.817 469.292 275.74 468.628 276.405L479.426 276.646C479.032 278.649 479.843 280.695 480.767 282.476C483.357 287.371 486.932 291.534 491.214 294.638C495.495 297.741 500.366 299.702 505.444 300.364C505.17 300.542 504.934 300.786 504.755 301.077C504.575 301.369 504.457 301.701 504.407 302.05C504.357 302.398 504.378 302.755 504.468 303.094C504.557 303.432 504.713 303.745 504.925 304.008C505.804 304.978 507.294 304.857 508.395 304.23C509.496 303.602 510.358 302.563 511.363 301.758C513.136 300.363 515.299 299.716 517.463 299.934C518.816 300.079 520.129 300.567 521.487 300.643C525.482 300.878 528.906 297.684 532.753 296.379C535.555 295.422 538.734 295.422 541.085 293.476C542.101 292.64 542.934 291.265 542.637 289.909C542.392 289.13 542.003 288.415 541.496 287.811C540.143 285.866 539.344 283.528 538.374 281.316C536.452 276.938 533.805 273 530.573 269.708C528.132 267.339 525.546 265.163 522.834 263.194C522.178 262.656 521.479 262.187 520.745 261.793C519.798 261.331 518.748 261.109 517.891 260.526C516.625 259.639 515.894 258.073 514.918 256.812C512.778 254.037 509.491 252.763 506.854 250.584C505.085 249.12 503.521 247.193 501.41 246.49C500.382 246.142 499.292 246.116 498.265 245.774C495.931 244.988 494.23 242.688 491.942 241.757C490.132 241.022 488.135 241.212 486.235 240.952C484.092 240.658 482.046 239.793 480.271 238.43C479.699 237.913 479.057 237.498 478.37 237.2C475.477 236.225 475.243 242.206 474.946 244.279C474.564 247.358 473.867 250.419 473.867 253.536Z" fill="#0046BB"/>
<path d="M476.687 273.598C477.172 279.441 473.2 285.099 474.358 290.821C474.604 292.038 475.077 293.198 475.248 294.433C475.734 297.823 473.907 301.036 472.167 303.875L457.214 328.239C456.614 329.309 455.897 330.292 455.08 331.167C452.226 333.987 447.935 333.702 444.179 334.538C441.541 335.14 439.05 336.363 436.874 338.125C436.776 338.209 436.712 338.332 436.695 338.468C436.678 338.605 436.709 338.743 436.783 338.853C437.403 339.791 438.224 340.541 439.172 341.036C440.12 341.53 441.165 341.754 442.21 341.686C442.604 342.256 442.21 343.105 441.668 343.517C440.869 344.151 439.762 344.297 439.602 345.811C439.548 346.337 439.644 346.869 439.876 347.332C440.481 348.353 441.417 349.075 442.49 349.347C447.666 351.108 453.259 348.016 457.134 343.815C461.009 339.614 463.789 334.31 467.59 330.039C469.696 327.669 472.087 325.648 474.255 323.354C478.581 318.772 481.949 313.215 485.19 307.645C486.166 305.966 487.153 304.242 487.559 302.297C487.964 300.352 487.775 298.381 488.238 296.499C488.843 294.034 490.469 292.063 491.822 289.998C494.475 285.942 496.25 280.981 495.897 275.981C495.543 270.981 492.758 266.051 488.512 264.353C487.195 263.772 485.745 263.674 484.374 264.074C482.633 264.67 481.349 266.267 480.162 267.8L477.309 271.438C476.614 272.243 476.069 273.193 475.705 274.232C475.521 274.756 475.477 275.327 475.578 275.878C475.679 276.429 475.922 276.935 476.276 277.337" fill="#FBBEBE"/>
<path d="M484.266 249.633C482.302 249.76 480.139 249.975 478.753 251.534C478.171 252.25 477.7 253.068 477.36 253.955C476.013 257.003 474.701 260.19 474.603 263.586C474.524 266.299 475.231 268.954 475.602 271.634C475.91 273.865 475.129 276.139 474.98 278.395C477.417 277.565 480.636 276.437 482.844 275.037C484.351 274.08 485.806 272.99 487.45 272.382C489.796 271.514 493.728 273.015 495.959 274.219C496.079 272.483 494.903 269.454 495.029 267.712C495.046 266.978 495.164 266.252 495.377 265.557C495.711 264.822 496.107 264.124 496.559 263.472C497.408 261.939 497.799 260.146 497.675 258.351C497.551 256.556 496.918 254.851 495.868 253.479C493.888 251.008 490.789 250.083 487.832 249.677C485.971 249.438 484.095 249.366 482.222 249.462" fill="#0046BB"/>
<defs>
<linearGradient id="paint0_linear" x1="403.043" y1="346.096" x2="403.043" y2="36.4485" gradientUnits="userSpaceOnUse">
<stop stop-color="#808080" stop-opacity="0.25"/>
<stop offset="0.54" stop-color="#808080" stop-opacity="0.12"/>
<stop offset="1" stop-color="#808080" stop-opacity="0.1"/>
</linearGradient>
</defs>
</svg>
