<svg width="653" height="568" viewBox="0 0 653 568" fill="none" xmlns="http://www.w3.org/2000/svg">
<path d="M27.5893 518.604C30.338 519.984 33.2892 520.33 36.1587 519.608C39.0281 518.886 41.719 517.121 43.9722 514.483C49.7103 507.603 51.5097 496.273 52.9731 485.78L57.3029 454.741L48.2382 463.655C41.719 470.067 35.0533 476.684 30.5399 485.97C26.0264 495.256 24.0574 507.933 27.6827 517.981" fill="#E6E6E6"/>
<path d="M28.9889 558.344C27.848 546.472 26.6741 534.446 27.4763 522.446C28.1872 511.789 30.4637 501.382 35.0981 492.845C37.5581 488.323 40.5514 484.449 43.9435 481.396C44.8278 480.599 45.642 482.601 44.7614 483.395C38.892 488.693 34.3521 496.516 31.7964 505.737C28.9738 515.99 28.5206 527.168 29.0067 538.061C29.3006 544.648 29.9251 551.191 30.5523 557.727C30.6018 558.023 30.5709 558.334 30.4658 558.599C30.3607 558.863 30.1893 559.06 29.9862 559.151C29.779 559.231 29.5581 559.19 29.3715 559.039C29.1849 558.888 29.0476 558.637 28.9895 558.342L28.9889 558.344Z" fill="#F2F2F2"/>
<path d="M37.2012 539.294C38.3799 541.853 40.0003 543.936 41.9063 545.342C43.8122 546.747 45.9395 547.428 48.0832 547.318C53.5933 546.944 58.1851 541.454 62.3182 536.24L74.5458 520.82L66.4535 520.266C60.6338 519.868 54.664 519.495 49.1209 522.061C43.5778 524.627 38.4658 530.794 37.4524 538.989" fill="#E6E6E6"/>
<path d="M25.7639 565.169C31.2567 551.287 37.6274 535.859 49.0118 530.928C52.1769 529.562 55.4958 529.072 58.7896 529.486C59.8279 529.614 59.5685 531.9 58.5324 531.772C53.0111 531.118 47.5003 533.2 42.928 537.669C38.528 541.946 35.1019 547.894 32.2026 554.2C30.4264 558.063 28.8355 562.09 27.2446 566.112C26.7362 567.397 25.2496 566.469 25.7639 565.169Z" fill="#F2F2F2"/>
<path d="M577.063 17.7883H122.789V325.673H577.063V17.7883Z" fill="#E6E6E6"/>
<path d="M564.073 44.19H135.78V301.068H564.073V44.19Z" fill="white"/>
<path d="M576.869 0H122.596V27.5646H576.869V0Z" fill="#0046BB"/>
<path d="M136.937 17.8589C138.913 17.8589 140.514 15.5715 140.514 12.7499C140.514 9.92829 138.913 7.64091 136.937 7.64091C134.962 7.64091 133.36 9.92829 133.36 12.7499C133.36 15.5715 134.962 17.8589 136.937 17.8589Z" fill="white"/>
<path d="M150.514 17.8589C152.49 17.8589 154.091 15.5715 154.091 12.7499C154.091 9.92829 152.49 7.64091 150.514 7.64091C148.539 7.64091 146.937 9.92829 146.937 12.7499C146.937 15.5715 148.539 17.8589 150.514 17.8589Z" fill="white"/>
<path d="M164.092 17.8589C166.067 17.8589 167.669 15.5715 167.669 12.7499C167.669 9.92829 166.067 7.64091 164.092 7.64091C162.116 7.64091 160.515 9.92829 160.515 12.7499C160.515 15.5715 162.116 17.8589 164.092 17.8589Z" fill="white"/>
<path d="M236.935 240.965H453.399V187.974C453.366 182.386 452.552 176.864 451.005 171.731C449.458 166.599 447.208 161.96 444.389 158.086L444.33 158.004C440.464 152.463 427.543 138.401 414.174 139.594C407.113 140.222 401.067 145.082 396.205 154.042C381.072 181.939 361.193 172.522 350.69 164.426C341.434 157.29 331.981 153.94 322.592 154.473C309.443 155.208 290.936 162.126 277.439 190.917C272.284 201.905 261.072 216.819 236.935 225.584V240.965Z" fill="#E4E4E4"/>
<path d="M465.647 242.198H237.351C237.162 242.198 236.98 242.09 236.846 241.899C236.712 241.707 236.637 241.448 236.637 241.177V84.8899C236.637 84.6192 236.712 84.3597 236.846 84.1683C236.98 83.9769 237.162 83.8694 237.351 83.8694C237.541 83.8694 237.723 83.9769 237.857 84.1683C237.99 84.3597 238.066 84.6192 238.066 84.8899V240.157H465.647C465.836 240.157 466.018 240.264 466.152 240.456C466.286 240.647 466.361 240.907 466.361 241.177C466.361 241.448 466.286 241.707 466.152 241.899C466.018 242.09 465.836 242.198 465.647 242.198Z" fill="#3F3D56"/>
<path d="M280.777 182.097H279.376V240.762H280.777V182.097Z" fill="#3F3D56"/>
<path d="M322.729 154.699H321.328V240.762H322.729V154.699Z" fill="#3F3D56"/>
<path d="M364.768 172.712H363.367V240.762H364.768V172.712Z" fill="#3F3D56"/>
<path d="M406.806 139.688H405.405V240.762H406.806V139.688Z" fill="#3F3D56"/>
<path d="M448.845 162.705H447.444V240.762H448.845V162.705Z" fill="#3F3D56"/>
<path d="M322.115 162.201C324.482 162.201 326.402 159.46 326.402 156.078C326.402 152.697 324.482 149.956 322.115 149.956C319.747 149.956 317.828 152.697 317.828 156.078C317.828 159.46 319.747 162.201 322.115 162.201Z" fill="#0046BB"/>
<path d="M406.192 146.189C408.56 146.189 410.479 143.448 410.479 140.067C410.479 136.685 408.56 133.944 406.192 133.944C403.825 133.944 401.905 136.685 401.905 140.067C401.905 143.448 403.825 146.189 406.192 146.189Z" fill="#0046BB"/>
<path d="M364.154 179.214C366.521 179.214 368.44 176.472 368.44 173.091C368.44 169.709 366.521 166.968 364.154 166.968C361.786 166.968 359.867 169.709 359.867 173.091C359.867 176.472 361.786 179.214 364.154 179.214Z" fill="#0046BB"/>
<path d="M280.076 188.22C282.444 188.22 284.363 185.479 284.363 182.097C284.363 178.716 282.444 175.975 280.076 175.975C277.709 175.975 275.79 178.716 275.79 182.097C275.79 185.479 277.709 188.22 280.076 188.22Z" fill="#0046BB"/>
<path d="M448.231 168.206C450.598 168.206 452.518 165.464 452.518 162.083C452.518 158.701 450.598 155.96 448.231 155.96C445.863 155.96 443.944 158.701 443.944 162.083C443.944 165.464 445.863 168.206 448.231 168.206Z" fill="#0046BB"/>
<path d="M95.9272 555.874H104.517L108.603 508.552L95.9258 508.553L95.9272 555.874Z" fill="#FFB6B6"/>
<path d="M93.7359 551.869L110.652 551.868H110.653C113.512 551.868 116.254 553.49 118.276 556.378C120.297 559.265 121.433 563.182 121.433 567.265V567.766L93.7364 567.767L93.7359 551.869Z" fill="#2F2E41"/>
<path d="M136.565 555.874H145.154L149.241 508.552L136.563 508.553L136.565 555.874Z" fill="#FFB6B6"/>
<path d="M134.373 551.869L151.29 551.868H151.29C154.149 551.868 156.891 553.49 158.913 556.378C160.935 559.265 162.071 563.182 162.071 567.265V567.766L134.374 567.767L134.373 551.869Z" fill="#2F2E41"/>
<path d="M152.595 339.532C153.321 338.351 153.857 336.957 154.165 335.448C154.473 333.939 154.546 332.352 154.378 330.799C154.21 329.246 153.806 327.764 153.194 326.458C152.582 325.152 151.776 324.053 150.835 323.24L136.856 227.381L121.627 235.951L140.156 327.483C139.305 329.832 139.086 332.547 139.541 335.111C139.997 337.676 141.096 339.913 142.629 341.398C144.162 342.884 146.023 343.514 147.86 343.17C149.697 342.826 151.382 341.532 152.595 339.532V339.532Z" fill="#FFB6B6"/>
<path d="M86.7148 321.072L80.3834 330.252C80.3834 330.252 73.5953 365.781 86.5847 409.599L95.2727 536.641L110.904 538.322L115.57 390.519L137.101 439.58L133.34 537.797L150.619 537.23L158.428 428.398L137.101 314.831L86.7148 321.072Z" fill="#2F2E41"/>
<path d="M108.853 333.438C99.3187 333.343 89.7971 332.445 80.3374 330.748L79.9566 330.676L89.3919 271.447L86.143 195.241L116.823 193.74C119.6 193.596 122.316 194.922 124.451 197.464C126.585 200.006 127.987 203.585 128.387 207.513L134.666 268.313L140.474 322.255L140.396 322.417C136.222 331.158 122.267 333.438 108.853 333.438Z" fill="#0046BB"/>
<path d="M114.031 206.344L120.265 195.182C120.265 195.182 131.193 184.509 134.651 207.381C138.11 230.254 144.535 267.385 144.535 267.385L123.167 269.857L114.031 206.344Z" fill="#0046BB"/>
<path d="M54.9609 340.533C54.2348 339.352 53.6989 337.958 53.3909 336.449C53.0829 334.94 53.0102 333.353 53.1781 331.8C53.3459 330.246 53.7501 328.765 54.3623 327.459C54.9744 326.153 55.7796 325.054 56.7211 324.241L70.6999 228.382L85.9291 236.952L67.3997 328.483C68.2516 330.833 68.4704 333.547 68.0148 336.112C67.5591 338.677 66.4606 340.914 64.9273 342.399C63.3941 343.884 61.5326 344.515 59.6958 344.171C57.8589 343.827 56.1742 342.532 54.9609 340.533V340.533Z" fill="#FFB6B6"/>
<path d="M93.5249 207.344L87.2914 196.183C87.2914 196.183 76.3635 185.509 72.905 208.382C69.4465 231.255 63.0207 268.386 63.0207 268.386L84.389 270.857L93.5249 207.344Z" fill="#0046BB"/>
<path d="M119.795 182.594H79.1575C78.3216 182.593 77.5202 182.118 76.9291 181.274C76.3381 180.43 76.0056 179.285 76.0046 178.091V153.073C76.0046 144.182 78.4775 135.655 82.8793 129.368C87.2811 123.081 93.2512 119.549 99.4762 119.549C105.701 119.549 111.671 123.081 116.073 129.368C120.475 135.655 122.948 144.182 122.948 153.073V178.091C122.947 179.285 122.614 180.43 122.023 181.274C121.432 182.118 120.631 182.593 119.795 182.594Z" fill="#2F2E41"/>
<path d="M103.963 181.087C113.467 181.087 121.171 170.083 121.171 156.509C121.171 142.934 113.467 131.93 103.963 131.93C94.4588 131.93 86.7543 142.934 86.7543 156.509C86.7543 170.083 94.4588 181.087 103.963 181.087Z" fill="#FFB6B6"/>
<path d="M128.501 155.575H103.652L103.397 150.479L102.123 155.575H98.2968L97.7918 145.476L95.2667 155.575H87.8633V155.074C87.8688 148.043 89.8267 141.303 93.3075 136.331C96.7882 131.36 101.508 128.563 106.43 128.555H109.934C114.856 128.563 119.575 131.36 123.056 136.331C126.537 141.303 128.495 148.043 128.501 155.074V155.575Z" fill="#2F2E41"/>
<path d="M103.448 187.265C103.261 187.264 103.075 187.241 102.891 187.194L84.6952 182.609V139.658H104.725L104.229 140.483C97.3295 151.976 102.527 170.612 106.24 180.697C106.513 181.436 106.635 182.27 106.592 183.103C106.548 183.937 106.341 184.735 105.993 185.408C105.702 185.983 105.319 186.451 104.877 186.773C104.435 187.096 103.945 187.265 103.448 187.265Z" fill="#2F2E41"/>
<path d="M605.583 555.874H596.993L592.906 508.552L605.585 508.553L605.583 555.874Z" fill="#9E616A"/>
<path d="M607.774 567.767L580.076 567.766V567.265C580.077 563.182 581.213 559.265 583.234 556.378C585.256 553.49 587.998 551.868 590.857 551.868H590.858L607.774 551.869L607.774 567.767Z" fill="#2F2E41"/>
<path d="M574.754 555.874H566.165L562.078 508.552L574.756 508.553L574.754 555.874Z" fill="#9E616A"/>
<path d="M576.945 567.767L549.248 567.766V567.265C549.248 563.182 550.384 559.265 552.406 556.378C554.428 553.49 557.17 551.868 560.029 551.868H560.029L576.946 551.869L576.945 567.767Z" fill="#2F2E41"/>
<path d="M474.713 224.277C475.399 225.625 476.284 226.742 477.306 227.549C478.327 228.356 479.46 228.834 480.625 228.948C481.789 229.062 482.957 228.81 484.046 228.209C485.135 227.609 486.119 226.674 486.928 225.472L503.924 234.952L510.477 221.605L486.343 208.699C484.839 206.892 482.923 205.936 480.958 206.011C478.994 206.087 477.117 207.189 475.683 209.11C474.25 211.03 473.359 213.634 473.18 216.43C473.001 219.225 473.547 222.017 474.713 224.277Z" fill="#9E616A"/>
<path d="M574.646 305.147L552.268 315.574L559.744 541.935L577.014 542.545L585.853 382.912L587.86 541.915L609.215 543.596L617.088 305.147H574.646Z" fill="#2F2E41"/>
<path d="M559.547 171.711L616.982 153.887L623.369 224.524L618.051 258.274L620.181 309.566C620.181 309.566 574.766 341.851 552.268 315.574C552.268 315.574 570.351 247.735 559.869 215.977L559.547 171.711Z" fill="#3F3D56"/>
<path d="M569.494 181.702L559.547 171.711C559.547 171.711 558.959 170.549 550.67 184.39C542.381 198.231 525.566 220.247 525.566 220.247L497.54 205.236L492.434 232.18L525.006 253.86L571.119 209.873L569.494 181.702Z" fill="#3F3D56"/>
<path d="M620.191 336.044C621.247 335.331 622.18 334.297 622.925 333.014C623.671 331.731 624.21 330.23 624.506 328.617C624.801 327.004 624.845 325.318 624.635 323.678C624.425 322.038 623.965 320.484 623.289 319.125L632.977 297.04L625.016 285.358L611.642 316.821C610.119 318.595 609.104 321.105 608.79 323.876C608.476 326.647 608.885 329.487 609.939 331.856C610.993 334.225 612.618 335.96 614.508 336.732C616.397 337.504 618.42 337.259 620.191 336.044V336.044Z" fill="#9E616A"/>
<path d="M608.024 167.802L616.982 153.887C616.982 153.887 626.963 148.922 635.119 174.577C643.274 200.232 652.382 252.27 652.382 252.27L631.086 310.86L614.547 300.305L631.086 251.856L613.585 215.977L608.024 167.802Z" fill="#3F3D56"/>
<path d="M592.833 148.093C601.868 141.039 605.188 124.86 600.25 111.955C595.311 99.0511 583.983 94.3086 574.948 101.363C565.913 108.417 562.593 124.596 567.532 137.501C572.471 150.405 583.798 155.148 592.833 148.093Z" fill="#9E616A"/>
<path d="M601.425 103.44L602.329 100.842L597.781 97.6143C597.781 97.6143 592.764 85.9548 583.686 89.2314C574.607 92.5079 570.523 94.4689 570.523 94.4689L565.986 97.729L568.263 100.965L564.179 102.926L566.907 104.862L563.733 107.468L565.442 120.83C565.442 120.83 568.28 110.696 573.738 114.569C579.195 118.441 589.177 112.567 589.177 112.567L597.85 136.539C597.85 136.539 599.639 128.136 602.829 130.376C602.829 130.376 610.979 111.839 601.425 103.44Z" fill="#2F2E41"/>
<path d="M210.193 568H0.700644C0.514821 568 0.336609 567.895 0.205213 567.707C0.0738171 567.519 0 567.265 0 566.999C0 566.734 0.0738171 566.479 0.205213 566.292C0.336609 566.104 0.514821 565.998 0.700644 565.998H210.193C210.379 565.998 210.557 566.104 210.689 566.292C210.82 566.479 210.894 566.734 210.894 566.999C210.894 567.265 210.82 567.519 210.689 567.707C210.557 567.895 210.379 568 210.193 568Z" fill="#CACACA"/>
<path d="M652.299 568H491.852C491.666 568 491.488 567.895 491.357 567.707C491.225 567.519 491.151 567.265 491.151 566.999C491.151 566.734 491.225 566.479 491.357 566.292C491.488 566.104 491.666 565.998 491.852 565.998H652.299C652.485 565.998 652.663 566.104 652.795 566.292C652.926 566.479 653 566.734 653 566.999C653 567.265 652.926 567.519 652.795 567.707C652.663 567.895 652.485 568 652.299 568Z" fill="#CACACA"/>
</svg>
