<svg width="285" height="125" viewBox="0 0 285 125" fill="none" xmlns="http://www.w3.org/2000/svg">
<path d="M115 35V25H60V35H77.5C84.01 35 89.505 39.19 91.575 45H60V55H91.575C90.5486 57.9162 88.6446 60.443 86.1244 62.2336C83.6042 64.0241 80.5915 64.9905 77.5 65H60V77.07L87.93 105H102.07L72.07 75H77.5C83.2598 74.9923 88.8408 72.9987 93.302 69.3555C97.7631 65.7122 100.832 60.6421 101.99 55H115V45H101.99C101.224 41.361 99.6442 37.9424 97.37 35H115Z" fill="black"/>
<path d="M171.936 99H126.432V88.632L147.84 69.528C151.232 66.456 153.824 63.544 155.616 60.792C157.472 57.976 158.4 55.032 158.4 51.96V50.712C158.4 47.448 157.408 44.888 155.424 43.032C153.504 41.176 150.88 40.248 147.552 40.248C145.696 40.248 144.064 40.536 142.656 41.112C141.312 41.624 140.128 42.36 139.104 43.32C138.08 44.28 137.216 45.4 136.512 46.68C135.872 47.96 135.36 49.336 134.976 50.808L125.472 47.16C126.176 45.048 127.136 43.032 128.352 41.112C129.568 39.128 131.104 37.368 132.96 35.832C134.816 34.296 136.992 33.08 139.488 32.184C142.048 31.288 145.024 30.84 148.416 30.84C151.808 30.84 154.848 31.352 157.536 32.376C160.224 33.336 162.464 34.712 164.256 36.504C166.112 38.232 167.52 40.312 168.48 42.744C169.44 45.176 169.92 47.832 169.92 50.712C169.92 53.4 169.504 55.896 168.672 58.2C167.84 60.504 166.688 62.68 165.216 64.728C163.744 66.776 162.016 68.728 160.032 70.584C158.112 72.44 156.064 74.328 153.888 76.248L138.144 89.784H171.936V99ZM206.363 100.152C202.203 100.152 198.587 99.384 195.515 97.848C192.443 96.248 189.915 93.976 187.931 91.032C185.947 88.088 184.475 84.472 183.515 80.184C182.555 75.896 182.075 71 182.075 65.496C182.075 60.056 182.555 55.192 183.515 50.904C184.475 46.552 185.947 42.904 187.931 39.96C189.915 37.016 192.443 34.776 195.515 33.24C198.587 31.64 202.203 30.84 206.363 30.84C214.683 30.84 220.795 33.88 224.699 39.96C228.667 46.04 230.651 54.552 230.651 65.496C230.651 76.44 228.667 84.952 224.699 91.032C220.795 97.112 214.683 100.152 206.363 100.152ZM206.363 90.936C208.667 90.936 210.619 90.488 212.219 89.592C213.883 88.632 215.227 87.288 216.251 85.56C217.275 83.832 218.011 81.784 218.459 79.416C218.907 76.984 219.131 74.296 219.131 71.352V59.64C219.131 56.696 218.907 54.04 218.459 51.672C218.011 49.24 217.275 47.16 216.251 45.432C215.227 43.704 213.883 42.392 212.219 41.496C210.619 40.536 208.667 40.056 206.363 40.056C204.059 40.056 202.075 40.536 200.411 41.496C198.811 42.392 197.499 43.704 196.475 45.432C195.451 47.16 194.715 49.24 194.267 51.672C193.819 54.04 193.595 56.696 193.595 59.64V71.352C193.595 74.296 193.819 76.984 194.267 79.416C194.715 81.784 195.451 83.832 196.475 85.56C197.499 87.288 198.811 88.632 200.411 89.592C202.075 90.488 204.059 90.936 206.363 90.936ZM250.773 67.896L243.477 62.808L253.653 50.136L238.389 45.72L241.173 37.368L255.861 43.128L255.189 27.288H264.309L263.637 43.128L278.325 37.368L281.205 45.72L265.845 50.136L276.021 62.808L268.725 67.896L259.701 54.456L250.773 67.896Z" fill="black"/>
</svg>
