<svg width="149" height="125" viewBox="0 0 149 125" fill="none" xmlns="http://www.w3.org/2000/svg">
<path d="M85 35V25H30V35H47.5C54.01 35 59.505 39.19 61.575 45H30V55H61.575C60.5486 57.9162 58.6446 60.443 56.1244 62.2336C53.6042 64.0241 50.5915 64.9905 47.5 65H30V77.07L57.93 105H72.07L42.07 75H47.5C53.2598 74.9923 58.8408 72.9987 63.302 69.3555C67.7631 65.7122 70.8316 60.6421 71.99 55H85V45H71.99C71.2236 41.361 69.6442 37.9424 67.37 35H85Z" fill="black"/>
<path d="M119.8 100.152C115.64 100.152 112.024 99.384 108.952 97.848C105.88 96.248 103.352 93.976 101.368 91.032C99.384 88.088 97.912 84.472 96.952 80.184C95.992 75.896 95.512 71 95.512 65.496C95.512 60.056 95.992 55.192 96.952 50.904C97.912 46.552 99.384 42.904 101.368 39.96C103.352 37.016 105.88 34.776 108.952 33.24C112.024 31.64 115.64 30.84 119.8 30.84C128.12 30.84 134.232 33.88 138.136 39.96C142.104 46.04 144.088 54.552 144.088 65.496C144.088 76.44 142.104 84.952 138.136 91.032C134.232 97.112 128.12 100.152 119.8 100.152ZM119.8 90.936C122.104 90.936 124.056 90.488 125.656 89.592C127.32 88.632 128.664 87.288 129.688 85.56C130.712 83.832 131.448 81.784 131.896 79.416C132.344 76.984 132.568 74.296 132.568 71.352V59.64C132.568 56.696 132.344 54.04 131.896 51.672C131.448 49.24 130.712 47.16 129.688 45.432C128.664 43.704 127.32 42.392 125.656 41.496C124.056 40.536 122.104 40.056 119.8 40.056C117.496 40.056 115.512 40.536 113.848 41.496C112.248 42.392 110.936 43.704 109.912 45.432C108.888 47.16 108.152 49.24 107.704 51.672C107.256 54.04 107.032 56.696 107.032 59.64V71.352C107.032 74.296 107.256 76.984 107.704 79.416C108.152 81.784 108.888 83.832 109.912 85.56C110.936 87.288 112.248 88.632 113.848 89.592C115.512 90.488 117.496 90.936 119.8 90.936Z" fill="black"/>
</svg>
